<svg width="43" height="70" viewBox="0 0 43 70" fill="none" xmlns="http://www.w3.org/2000/svg">
<g style="mix-blend-mode:multiply" opacity="0.45">
<path d="M22.6457 70C32.7062 70 40.862 69.1216 40.862 68.0379C40.862 66.9543 32.7062 66.0759 22.6457 66.0759C12.5851 66.0759 4.42932 66.9543 4.42932 68.0379C4.42932 69.1216 12.5851 70 22.6457 70Z" fill="#9D9D9C"/>
</g>
<path d="M20.5787 2.46036L20.5336 2.46487L20.5336 2.46488L20.5334 2.4649L20.5326 2.46498L20.5292 2.46534L20.5156 2.46683C20.5035 2.46818 20.4857 2.47026 20.4627 2.47315C20.4168 2.47893 20.3503 2.48795 20.2683 2.50087C20.1042 2.52673 19.8786 2.56819 19.6322 2.63055C19.1365 2.75598 18.5675 2.96342 18.2405 3.29039C18.0804 3.45046 17.9859 3.66119 17.9254 3.88857C17.8682 4.10319 17.8423 4.32858 17.8185 4.53554C17.8171 4.54814 17.8157 4.56067 17.8142 4.57312C17.8018 4.68096 17.7893 4.78362 17.7725 4.87468C17.7558 4.96538 17.7343 5.04782 17.7022 5.11426C17.67 5.18101 17.6251 5.23609 17.5595 5.26436C17.4939 5.29266 17.4169 5.29014 17.3289 5.26115C17.16 5.20544 16.9827 5.09711 16.8029 4.97592C16.7401 4.93359 16.6772 4.88979 16.6138 4.84572C16.4935 4.76197 16.3717 4.67728 16.2472 4.59996C15.8665 4.36343 15.4908 4.21637 15.1296 4.39779C14.763 4.58189 14.5348 4.91514 14.3271 5.21852L14.3149 5.23633C14.2108 5.38835 14.1099 5.53368 13.9989 5.64045C13.8868 5.74827 13.7597 5.82131 13.6029 5.82131C13.3301 5.82131 12.8623 5.88907 12.4375 6.06077C12.0108 6.23324 11.642 6.50439 11.5413 6.9023L11.4928 6.89003M20.5787 2.46036L8.31741 13.899V13.8606C8.31741 13.4782 8.38448 13.245 8.49404 13.0902C8.60322 12.936 8.75986 12.8522 8.95788 12.7802C9.02984 12.7541 9.10694 12.7297 9.18816 12.704C9.55243 12.5887 9.99963 12.4472 10.4372 12.0024C10.9724 11.4585 11.1115 10.9272 11.0472 10.3994C10.985 9.88951 10.733 9.38569 10.482 8.88387C10.4758 8.87157 10.4697 8.85926 10.4635 8.84696C10.3385 8.59691 10.3307 8.41791 10.3829 8.27461C10.4361 8.12832 10.5549 8.00922 10.706 7.88618C10.751 7.84948 10.7992 7.81228 10.8488 7.774C10.9616 7.6869 11.0816 7.5942 11.1886 7.48911C11.3449 7.33571 11.4799 7.15045 11.5413 6.90204L11.4928 6.89003M20.5787 2.46036V2.41512C20.5787 1.70002 20.9418 1.02888 21.3921 0.584143C21.617 0.361959 21.8615 0.198525 22.0897 0.114318C22.3185 0.029865 22.5243 0.0271915 22.6796 0.114545L22.6796 0.114548L22.6802 0.114847C22.8564 0.211045 23.032 0.408133 23.1965 0.675166C23.3604 0.941036 23.5102 1.27111 23.6372 1.62647C23.8915 2.3378 24.0517 3.1435 24.0517 3.72662V3.78183L24.1066 3.77637C24.3606 3.75114 24.5419 3.82961 24.6741 3.95933C24.8083 4.09093 24.8951 4.27848 24.9503 4.47465C25.0053 4.67022 25.0278 4.86994 25.0364 5.02142C25.0407 5.097 25.0415 5.16021 25.0412 5.20441C25.0411 5.2265 25.0407 5.24382 25.0403 5.25554L25.0399 5.2688L25.0397 5.27208L25.0397 5.27285L25.0397 5.27302L25.0398 5.27305L25.1366 5.29097L20.5787 2.46036ZM11.4928 6.89003C11.3939 7.28995 11.0947 7.52092 10.8211 7.73217C10.447 8.02096 10.1206 8.27293 10.4188 8.86932L10.4353 8.90228C10.946 9.92325 11.4403 10.9116 10.4016 11.9673C9.97349 12.4025 9.53965 12.54 9.17595 12.6552C8.64772 12.8227 8.26741 12.9432 8.26741 13.8606L20.5287 2.41512C20.5287 2.41512 18.8798 2.58035 18.2051 3.25503C17.8777 3.58246 17.8178 4.10365 17.769 4.52902C17.7171 4.98015 17.6777 5.32351 17.3446 5.21366C17.1274 5.14204 16.8912 4.97775 16.644 4.80576C16.1545 4.46529 15.6217 4.09468 15.1071 4.3531C14.7289 4.54308 14.4943 4.88579 14.2883 5.18672C14.0725 5.50193 13.8882 5.77131 13.6029 5.77131C13.0452 5.77131 11.7062 6.04669 11.4928 6.89003ZM32.1256 13.2582L32.0766 13.2682C32.0766 13.2682 32.0766 13.2683 32.0766 13.2683C32.0766 13.2684 32.0766 13.2684 32.0766 13.2685L32.1256 13.2582ZM32.1256 13.2582C32.0959 13.1168 32.0829 12.9774 32.0705 12.845C32.0228 12.3325 31.9849 11.926 31.0275 11.926C29.8227 11.926 29.7607 11.5371 29.7607 11.1068C29.7607 10.6765 29.5886 8.02942 27.8882 7.27901L35.1169 15.6264C34.6306 15.6565 34.3799 15.3722 34.1307 15.0896C33.9229 14.8541 33.7162 14.6197 33.3751 14.5697C32.6247 14.4595 32.2977 14.0981 32.1256 13.2582ZM4.36047 40.6274L4.3532 40.5779L4.3811 40.673C3.99602 40.8475 3.6649 41.1222 3.42237 41.4686C3.18173 41.8122 3.03707 42.2137 3.00322 42.6317L3.0058 42.6395C3.00956 42.6508 3.0152 42.6675 3.02269 42.6891C3.03765 42.7322 3.05996 42.7945 3.08923 42.8712C3.14779 43.0245 3.23413 43.2346 3.34519 43.4621C3.56844 43.9193 3.88743 44.4376 4.27562 44.7103L4.27577 44.7104C4.67176 44.9909 5.12469 45.1807 5.60234 45.2662C6.07999 45.3518 6.57063 45.3311 7.03936 45.2055L7.09366 45.1909L7.10176 45.2465L7.10177 45.2466L7.10186 45.2471L7.10232 45.2499L7.10454 45.2618C7.10665 45.2726 7.11011 45.2886 7.1154 45.3093C7.12597 45.3506 7.14383 45.4102 7.17274 45.482C7.23057 45.6256 7.3325 45.8177 7.50869 46.01C7.85975 46.3932 8.51168 46.7838 9.71659 46.7838C10.3329 46.7838 10.7751 46.9188 11.1211 47.1215C11.4661 47.3237 11.7124 47.5914 11.9379 47.8499C11.9588 47.8738 11.9794 47.8976 12 47.9213C12.203 48.1551 12.3932 48.3743 12.6337 48.5348C12.8958 48.7098 13.2193 48.8158 13.6855 48.7838C14.6199 48.7197 15.0189 48.5322 15.3892 48.3582L15.4021 48.3521C15.5909 48.2635 15.7767 48.1771 16.0227 48.1134C16.2686 48.0497 16.5729 48.0092 17.0004 48.0092C17.7087 48.0092 18.206 48.2024 18.6845 48.3882C18.7868 48.4279 18.8882 48.4673 18.9907 48.5044C19.5704 48.7144 20.1959 48.858 21.2288 48.5925C21.7452 48.4598 22.2763 48.2125 22.8321 47.9202C23.0576 47.8017 23.2881 47.6752 23.5231 47.5462C23.8644 47.3589 24.2154 47.1663 24.5749 46.9849C25.7928 46.3703 27.1378 45.8683 28.6726 46.0682L28.6726 46.0682C30.8025 46.3474 31.9035 46.4484 32.9141 46.166L32.9142 46.166C33.2787 46.0648 33.5248 45.9119 33.7004 45.735C33.8763 45.5576 33.984 45.3535 34.0679 45.1452C34.1072 45.0476 34.1411 44.9498 34.1745 44.8532L34.1814 44.8332C34.2169 44.7306 34.2524 44.6295 34.2932 44.5345C34.375 44.3445 34.4805 44.1739 34.6595 44.0586C34.7458 44.003 34.8562 43.9467 34.9808 43.8858C35.015 43.8691 35.0503 43.852 35.0866 43.8345C35.1835 43.7876 35.2874 43.7373 35.3964 43.6814C35.6953 43.528 36.0273 43.3346 36.332 43.0658C36.9389 42.5302 37.4428 41.6907 37.3457 40.2556C37.2483 38.8152 36.7691 38.0591 36.3216 37.6628C36.0973 37.4641 35.8795 37.3545 35.7183 37.2945C35.6377 37.2645 35.5714 37.2469 35.5255 37.2369C35.5026 37.2319 35.4848 37.2288 35.4729 37.2269L35.4597 37.225L35.4567 37.2247L35.456 37.2246L35.456 37.2243L35.4451 37.1275C35.6575 37.0556 35.8355 36.9072 35.9447 36.7113C36.0538 36.5154 36.0861 36.2859 36.0354 36.0674L36.025 36.0225L36.0689 36.0085C36.4965 35.8717 36.8697 35.6025 37.1344 35.2398C37.3991 34.8772 37.5418 34.4398 37.5418 33.9908V33.9882L37.5419 33.9883C37.5839 33.1573 37.2066 32.639 36.8183 32.3267C36.6235 32.1701 36.4259 32.0652 36.2768 31.9996C36.2023 31.9668 36.1402 31.9439 36.0969 31.9292C36.0752 31.9219 36.0583 31.9166 36.0469 31.9132L36.034 31.9095L36.0309 31.9086L36.0302 31.9084L4.36047 40.6274ZM4.36047 40.6274L4.35319 40.5779L4.3531 40.578L4.35267 40.578L4.35087 40.5783L4.34351 40.5793L4.31427 40.5831C4.28853 40.5864 4.25055 40.5909 4.20187 40.596C4.10451 40.6061 3.96445 40.6182 3.79408 40.6264C3.45316 40.6428 2.99183 40.6432 2.50905 40.5796C1.53913 40.4518 0.504621 40.0693 0.160038 39.0656L0.159879 39.0652C-0.0695065 38.4172 0.076553 37.7517 0.447529 37.1681C0.818773 36.5841 1.41342 36.0858 2.0719 35.7778C2.7368 35.4669 3.00251 35.2383 3.06409 34.9158C3.09413 34.7585 3.07429 34.584 3.0396 34.3776C3.02985 34.3195 3.01888 34.2588 3.00732 34.1948C2.97734 34.0287 2.94336 33.8405 2.91616 33.6198C2.84408 33.035 3.22962 32.6306 3.65034 32.3676C3.85961 32.2367 4.07405 32.1433 4.23652 32.0826C4.31765 32.0523 4.38559 32.0302 4.43311 32.0157C4.45686 32.0085 4.4755 32.0031 4.48812 31.9996L4.50242 31.9958L4.50596 31.9948L4.5068 31.9946L4.50698 31.9946L4.50699 31.9946L4.50699 31.9945L4.50044 31.8964C3.38797 31.7681 2.22739 31.3838 1.3821 30.8126C0.535739 30.2407 0.0169006 29.4904 0.155227 28.6288C0.225159 28.1932 0.384144 27.9056 0.573433 27.6895C0.728233 27.5127 0.903014 27.3834 1.07237 27.2582C1.11209 27.2288 1.15151 27.1997 1.1903 27.1702C1.39226 27.0167 1.5765 26.8541 1.66971 26.6064C1.76306 26.3583 1.76197 26.0342 1.61659 25.5632C1.47543 25.1059 1.48502 24.7347 1.57584 24.4352C1.66676 24.1353 1.84021 23.9035 2.03246 23.7272C2.22489 23.5507 2.43539 23.4305 2.59828 23.3544C2.6796 23.3165 2.74875 23.2896 2.79737 23.2723C2.82167 23.2636 2.84083 23.2574 2.85378 23.2533L2.86843 23.2489L2.87202 23.2478L2.87284 23.2476L2.87299 23.2475L2.87301 23.2475L2.92923 23.232L2.90522 23.1788C2.77229 22.8843 2.74064 22.6434 2.7648 22.4482C2.78896 22.2532 2.86931 22.1003 2.96624 21.9825C3.06347 21.8643 3.17739 21.7815 3.26752 21.7282C3.31247 21.7017 3.35119 21.6826 3.37847 21.6702C3.39211 21.664 3.40285 21.6596 3.41006 21.6567L3.41812 21.6535L3.42 21.6528L3.42036 21.6527L3.4204 21.6527L3.42042 21.6527L3.45352 21.6408V21.6056C3.45352 20.6436 3.62986 19.9526 3.89176 19.4407C4.15352 18.9291 4.50234 18.5933 4.85245 18.3439C5.02776 18.2191 5.20343 18.1159 5.36928 18.0229C5.41443 17.9976 5.45903 17.973 5.50275 17.9488C5.61868 17.8847 5.72844 17.8241 5.82603 17.7635C6.09349 17.5973 6.29337 17.4176 6.29337 17.1307C6.29337 16.6356 6.5501 16.3486 6.809 16.1832C6.93907 16.1001 7.06952 16.0479 7.16766 16.0166C7.21665 16.0009 7.25735 15.9905 7.28562 15.9841C7.29975 15.9808 7.31075 15.9786 7.31811 15.9772L7.32633 15.9757L7.32826 15.9754L7.32867 15.9753L7.32868 15.9753L7.32871 15.9753L7.32872 15.9753L7.38552 15.9662L7.36858 15.9112C7.24165 15.4991 7.23737 15.1696 7.29952 14.9075C7.36166 14.6455 7.49095 14.4475 7.63615 14.2996C7.78165 14.1514 7.94317 14.0535 8.06872 13.9925C8.1314 13.9621 8.18482 13.941 8.22235 13.9276C8.24111 13.921 8.25587 13.9162 8.26581 13.9131L8.27698 13.9098L8.27964 13.9091L8.28021 13.9089L8.28026 13.9089L8.28029 13.9089L4.36047 40.6274Z" fill="#009966" stroke="black" stroke-width="0.1"/>
<g style="mix-blend-mode:multiply" opacity="0.35">
<path d="M36.9551 38.4176C36.9551 39.6705 36.8174 40.118 34.9517 40.5311C33.6643 40.8134 33.2857 40.1869 30.611 39.908C26.7867 39.5122 23.8952 41.8942 21.2722 42.4312C18.6493 42.9682 18.0778 41.8495 15.9402 41.8495C13.8026 41.8495 14.1537 42.4966 11.7717 42.624C9.38963 42.7513 9.42405 38.8375 6.38112 39.1542C0.52931 39.7394 0.302126 37.3195 0.302126 37.316C0.149692 37.5786 0.0540745 37.8702 0.0214617 38.172C-0.0111511 38.4738 0.0199669 38.7791 0.112802 39.0681C0.821903 41.1335 4.36052 40.6137 4.36052 40.6137C3.96728 40.7919 3.62914 41.0725 3.38147 41.4262C3.1338 41.7798 2.9857 42.1935 2.95265 42.624C2.95265 42.624 3.44833 44.1764 4.24693 44.7375C4.64891 45.0222 5.1087 45.2149 5.59358 45.3017C6.07846 45.3886 6.57653 45.3675 7.05236 45.2401C7.05236 45.2401 7.28298 46.8201 9.71665 46.8201C12.1503 46.8201 11.782 48.9508 13.689 48.82C15.596 48.6892 15.3034 48.0455 17.0004 48.0455C18.6974 48.0455 19.1518 49.1642 21.2413 48.6272C23.3307 48.0902 25.6267 45.7082 28.6662 46.1041C30.7935 46.3829 31.9053 46.4862 32.9277 46.2005C34.4147 45.7874 34.0188 44.5172 34.6866 44.0869C35.3544 43.6566 37.5919 43.1403 37.3957 40.2385C37.3715 39.6082 37.2217 38.9891 36.9551 38.4176Z" fill="#009966"/>
</g>
<path d="M25.0511 32.426L25.0509 32.4256C24.6059 32.7033 24.126 33.1568 23.6553 33.6838C23.1851 34.2103 22.7263 34.8076 22.3233 35.3709C21.9204 35.934 21.5737 36.4625 21.3277 36.8508C21.2047 37.0449 21.107 37.2039 21.04 37.3147C21.0065 37.3701 20.9807 37.4134 20.9634 37.4429L20.9438 37.4764L20.9393 37.4846M25.0511 32.426L20.009 26.2113C20.202 27.9501 19.8332 29.6215 19.4629 31.2998C19.3244 31.9271 19.1858 32.5555 19.0762 33.1887C18.8662 34.4072 19.4617 37.1472 19.806 37.6636C20.0366 38.0078 21.3137 35.4881 21.3137 35.075C21.3137 34.989 21.5821 34.717 21.5821 34.8685M25.0511 32.426L25.0567 32.4214C25.6647 31.9076 26.1182 31.6865 26.3791 31.6228C26.4442 31.607 26.4955 31.6013 26.5333 31.6025C26.5727 31.6038 26.5904 31.6123 26.5959 31.617C26.5965 31.6175 26.5969 31.6178 26.5971 31.6181L25.0511 32.426ZM20.9393 37.4846L20.9395 37.4839L20.9409 37.4805C20.9416 37.4783 20.9433 37.4701 20.9437 37.4639H20.8937L20.8482 37.4432M20.9393 37.4846C20.9389 37.4853 20.9387 37.4856 20.9387 37.4856L20.9387 37.4856L20.939 37.4851L20.9391 37.4847M20.9393 37.4846L20.9392 37.4847L20.9391 37.4847M20.8482 37.4432L20.8495 37.4404L20.8515 37.4366L20.857 37.4268L20.8772 37.3922C20.8948 37.3622 20.9208 37.3186 20.9544 37.2629C20.979 37.2224 21.0076 37.1754 21.04 37.1226C21.3292 36.4023 21.512 35.6429 21.5821 34.8685M20.8482 37.4432C21.2177 36.6339 21.4483 35.7684 21.5306 34.8827C21.5286 34.8839 21.5264 34.8852 21.5241 34.8867C21.5112 34.895 21.4965 34.9063 21.4812 34.92C21.4503 34.9475 21.4192 34.9821 21.3963 35.0142C21.3848 35.0303 21.376 35.0448 21.3703 35.0568C21.364 35.0699 21.3637 35.0754 21.3637 35.075C21.3637 35.1355 21.3412 35.2269 21.3058 35.3346C21.2699 35.4442 21.2185 35.5766 21.1565 35.7218C21.0325 36.0123 20.8649 36.3567 20.6902 36.6772C20.5157 36.9973 20.3329 37.2957 20.1782 37.4933C20.1015 37.5911 20.0285 37.6686 19.9641 37.7101C19.932 37.7308 19.8965 37.7464 19.8601 37.7458C19.8197 37.7451 19.7868 37.7248 19.7644 37.6914L19.7643 37.6913C19.6735 37.555 19.57 37.2799 19.4692 36.9318C19.3677 36.5814 19.2672 36.1508 19.1841 35.6985C19.0183 34.7961 18.9203 33.7989 19.0269 33.1802L19.0269 33.1801C19.1278 32.5972 19.2533 32.0185 19.3803 31.4419C19.3915 31.391 19.4028 31.34 19.414 31.2891C19.53 30.7635 19.6456 30.2395 19.7439 29.714C19.9595 28.5612 20.0911 27.4041 19.9594 26.2168L19.9593 26.2166C19.9569 26.1942 19.9514 26.1857 19.9496 26.1836C19.9495 26.1835 19.9495 26.1835 19.9495 26.1834C19.9492 26.183 19.9489 26.1825 19.9454 26.1825C19.9395 26.1826 19.9285 26.185 19.9121 26.1938C19.8963 26.2023 19.8781 26.2154 19.8589 26.2328C19.7795 26.3046 19.7029 26.4296 19.694 26.5356L19.6938 26.5376L19.6938 26.5376C19.5299 27.8561 19.2835 29.163 18.956 30.4506C18.8278 30.9586 18.6821 31.3653 18.5411 31.7589C18.5222 31.8115 18.5034 31.8639 18.4848 31.9163C18.3267 32.3605 18.178 32.8042 18.0686 33.3804L18.0682 33.3822L18.0682 33.3822C17.8166 34.4927 17.7587 35.6384 17.8969 36.7687C17.9546 37.1465 17.9708 37.4159 17.9552 37.6017C17.9399 37.7833 17.8929 37.9025 17.8045 37.9527C17.7144 38.0039 17.6081 37.9691 17.5149 37.9152C17.4184 37.8594 17.3162 37.7719 17.2211 37.6829L17.221 37.6828C16.718 37.2094 16.2871 36.6343 15.8583 36.0619C15.8349 36.0306 15.8114 35.9994 15.788 35.9682C15.3351 35.3642 14.8798 34.7692 14.3361 34.2949C14.0985 34.1233 13.8112 34.034 13.5181 34.0407L13.517 34.0407C13.514 34.0407 13.5115 34.0408 13.5095 34.041C13.5097 34.0427 13.5101 34.0448 13.5105 34.0472C13.5124 34.0565 13.5159 34.068 13.5212 34.082C13.5277 34.0993 13.5345 34.115 13.5419 34.132C13.5479 34.1456 13.5542 34.16 13.5609 34.1768C13.5703 34.2 13.5802 34.227 13.5849 34.2537C13.8178 34.3989 14.0324 34.5716 14.224 34.7682L14.2267 34.7709L14.2266 34.771C14.7683 35.42 15.4491 36.5007 16.0553 37.5381C16.6621 38.5764 17.1961 39.5746 17.4444 40.0607L17.4444 40.0608C17.4545 40.0806 17.4639 40.1082 17.4548 40.1368C17.4445 40.1687 17.4176 40.1835 17.3955 40.1897C17.3738 40.1958 17.3486 40.1963 17.323 40.1945C17.2967 40.1926 17.2664 40.1878 17.2327 40.1808C17.099 40.1529 16.8966 40.0852 16.6498 39.9914C16.1548 39.8032 15.47 39.505 14.774 39.1915C14.1856 38.9265 13.5883 38.6502 13.0898 38.4195C12.9984 38.3773 12.9103 38.3365 12.8262 38.2976C12.5547 38.1722 12.3248 38.0664 12.1586 37.9921C12.0754 37.9549 12.0086 37.9257 11.9606 37.9059C11.9365 37.896 11.9177 37.8886 11.9042 37.8838C11.8974 37.8814 11.8925 37.8799 11.8893 37.879C11.8892 37.879 11.889 37.8789 11.8888 37.8789C11.8675 37.8795 11.8517 37.8862 11.8388 37.8972C11.8242 37.9096 11.8105 37.9296 11.7993 37.9594C11.7765 38.02 11.768 38.1088 11.7718 38.2143C11.7792 38.4187 11.8316 38.6652 11.8844 38.8341C11.9917 38.9343 12.1576 39.0492 12.3702 39.1792C12.5883 39.3126 12.8523 39.4601 13.1466 39.6224C13.2063 39.6553 13.2672 39.6888 13.3292 39.7229C13.8779 40.0248 14.512 40.3735 15.1337 40.7698C15.8257 41.2107 16.5048 41.7119 17.0366 42.2752C17.5683 42.8383 17.9558 43.4667 18.0586 44.1621L18.0586 44.1624C18.1039 44.483 18.1417 45.5998 18.1701 47.1757C18.1985 48.7539 18.2174 50.7971 18.2243 52.9745L18.2243 52.9745C18.2329 56.1104 19.0129 58.6425 19.8422 60.7613C20.0496 61.2911 20.26 61.795 20.4622 62.2762C20.4847 62.3296 20.5071 62.3828 20.5293 62.4357C20.7074 62.8589 20.8781 63.2647 21.0332 63.6545C21.3821 64.5312 21.6541 65.3312 21.7556 66.0759C21.7918 66.341 21.7232 66.6165 21.6008 66.8781C21.4782 67.14 21.3001 67.3914 21.1123 67.6101C20.9244 67.8289 20.7256 68.0162 20.5602 68.1498C20.4776 68.2166 20.4027 68.2705 20.3411 68.3083C20.3334 68.313 20.3259 68.3175 20.3186 68.3218M20.8482 37.4432L20.8481 37.4434L20.8466 37.4472C20.8458 37.4494 20.8441 37.4577 20.8437 37.4639L20.9391 37.4847M21.5821 34.8685L21.5339 34.8641C21.5318 34.8615 21.5313 34.8597 21.5314 34.8597C21.5314 34.8598 21.532 34.8617 21.5321 34.8665L21.5384 34.8685H21.5821ZM26.9123 68.1736C26.9063 68.1675 26.8997 68.1608 26.8925 68.1534C26.8498 68.1094 26.788 68.0428 26.7112 67.9516C26.5575 67.7693 26.3437 67.4891 26.1014 67.0956C25.6168 66.3085 25.0184 65.0689 24.5594 63.2551M26.9123 68.1736L24.5594 63.2551M26.9123 68.1736C25.5146 69.02 23.8525 69.0532 22.5283 68.8696C21.8583 68.7766 21.2767 68.6284 20.8626 68.5035C20.6556 68.441 20.4906 68.3843 20.3774 68.3434C20.3559 68.3356 20.3363 68.3284 20.3186 68.3218M26.9123 68.1736L20.3186 68.3218M24.5594 63.2551C24.3635 62.4853 24.0098 61.6382 23.5891 60.7113C23.454 60.4138 23.312 60.108 23.1662 59.794C22.8586 59.1316 22.5342 58.433 22.2228 57.6997C21.3044 55.5371 20.4941 53.0632 20.5408 50.2786C20.6063 46.3183 21.3783 43.9156 22.225 42.5934L22.2251 42.5933C22.5727 42.0546 23.4031 41.1219 24.2774 40.3089C24.7149 39.902 25.1648 39.5238 25.5723 39.2389C25.963 38.9657 26.3219 38.7733 26.596 38.73M24.5594 63.2551L26.596 38.73M26.596 38.73C26.6223 38.6665 26.661 38.5931 26.7021 38.5192C26.7242 38.4796 26.7465 38.4405 26.7685 38.4021C26.7953 38.3552 26.8216 38.3092 26.8462 38.2643C26.8908 38.1829 26.9242 38.1149 26.9371 38.0687C26.9397 38.0595 26.9411 38.0526 26.9418 38.0475C26.7745 38.0495 26.5669 38.0995 26.3287 38.1883C26.0863 38.2787 25.8157 38.408 25.529 38.5633C24.9556 38.874 24.3216 39.2866 23.7265 39.694C23.3688 39.9389 23.0268 40.1807 22.7205 40.3974C22.5163 40.5418 22.3279 40.675 22.1612 40.7905C21.9538 40.9342 21.7801 41.0503 21.6537 41.1244C21.5909 41.1613 21.5374 41.1891 21.4963 41.2045C21.4762 41.2121 21.4554 41.218 21.4363 41.219C21.4183 41.22 21.3877 41.2168 21.3688 41.1891L21.3686 41.1889C21.3611 41.1778 21.3571 41.1653 21.3546 41.1552C21.352 41.1445 21.3503 41.1326 21.3491 41.1201C21.3467 41.0951 21.3462 41.0641 21.3471 41.0286C21.3489 40.9573 21.3565 40.8633 21.3685 40.7537C21.3925 40.5344 21.4347 40.2492 21.4855 39.9524C21.5869 39.3607 21.7244 38.7147 21.8246 38.4513L21.8246 38.4512C22.5361 36.5906 23.4921 34.8329 24.6673 33.2246L24.6677 33.2241C24.736 33.133 24.86 33.0165 25.011 32.8885C25.163 32.7598 25.3458 32.6166 25.5344 32.4721C25.6341 32.3958 25.7354 32.3191 25.8346 32.2439C26.1121 32.0337 26.3741 31.8353 26.5441 31.6879L26.5443 31.6878C26.5775 31.6593 26.5916 31.6374 26.5958 31.6247L26.596 38.73ZM20.3186 68.3218L20.9392 37.4847L20.9391 37.4847M21.8713 38.4691C22.5812 36.6126 23.535 34.8589 24.7077 33.2541C24.8707 33.0368 25.3875 32.6453 25.8634 32.2849C26.1414 32.0743 26.4055 31.8742 26.5768 31.7257C26.866 31.4779 26.2464 31.3505 25.0244 32.3832L21.8713 38.4691Z" fill="#614028" stroke="black" stroke-width="0.1"/>
<path d="M20.4685 18.9489L15.8078 21.9461L17.355 16.7085L13 13.3157L18.5616 13.1157L20.4918 8L22.431 13.128L28 13.3646L23.6138 16.7354L25.099 22L20.4685 18.9489Z" fill="url(#paint0_linear_2022_2434)"/>
<path d="M20.5324 8.91718L18.8379 13.4084L20.5324 15.6918V8.91718Z" fill="url(#paint1_radial_2022_2434)"/>
<path d="M20.5325 8.91718L22.2265 13.4084L20.5325 15.6918V8.91718Z" fill="url(#paint2_radial_2022_2434)"/>
<path d="M27.1132 13.6199L22.2321 13.4125L20.5325 15.6917L27.1132 13.6199Z" fill="url(#paint3_radial_2022_2434)"/>
<path d="M27.1132 13.6199L23.2685 16.5742L20.5325 15.6918L27.1132 13.6199Z" fill="url(#paint4_radial_2022_2434)"/>
<path d="M13.9661 13.577L17.7903 16.5564L20.5324 15.6917L13.9661 13.577Z" fill="url(#paint5_radial_2022_2434)"/>
<path d="M13.9661 13.577L18.8482 13.4011L20.5324 15.6917L13.9661 13.577Z" fill="url(#paint6_radial_2022_2434)"/>
<path d="M24.5711 21.1893L23.2685 16.5742L20.5325 15.6918L24.5711 21.1893Z" fill="url(#paint7_radial_2022_2434)"/>
<path d="M24.571 21.1893L20.5115 18.515L20.5324 15.6918L24.571 21.1893Z" fill="url(#paint8_radial_2022_2434)"/>
<path d="M16.4266 21.1413L20.5114 18.515L20.5323 15.6918L16.4266 21.1413Z" fill="url(#paint9_radial_2022_2434)"/>
<path d="M16.4266 21.1413L17.7856 16.5418L20.5323 15.6918L16.4266 21.1413Z" fill="url(#paint10_radial_2022_2434)"/>
<path style="mix-blend-mode:screen" d="M20.5325 16.138C20.6596 16.138 20.7627 14.5217 20.7627 12.5279C20.7627 10.534 20.6596 8.91766 20.5325 8.91766C20.4053 8.91766 20.3022 10.534 20.3022 12.5279C20.3022 14.5217 20.4053 16.138 20.5325 16.138Z" fill="url(#paint11_radial_2022_2434)"/>
<path style="mix-blend-mode:screen" d="M18.6892 18.5776C17.4985 20.2155 16.4388 21.4779 16.3227 21.3971C16.2067 21.3163 17.0786 19.9222 18.2693 18.2843C19.46 16.6464 20.5198 15.3835 20.6358 15.4643C20.7519 15.5452 19.8804 16.9383 18.6892 18.5776Z" fill="url(#paint12_radial_2022_2434)"/>
<path style="mix-blend-mode:screen" d="M21.0402 15.9791C21.0866 15.8473 19.5517 15.2081 17.6117 14.5516C15.6718 13.8951 14.0615 13.4697 14.015 13.6016C13.9686 13.7334 15.5035 14.3726 17.4435 15.0291C19.3834 15.6857 20.9937 16.111 21.0402 15.9791Z" fill="url(#paint13_radial_2022_2434)"/>
<path style="mix-blend-mode:screen" d="M22.6067 18.0477C23.7718 19.6834 24.6293 21.0669 24.5249 21.1381C24.4205 21.2094 23.3924 19.9419 22.2288 18.3063C21.0651 16.6706 20.2062 15.2876 20.3106 15.2158C20.415 15.1441 21.443 16.4125 22.6067 18.0477Z" fill="url(#paint14_radial_2022_2434)"/>
<defs>
<linearGradient id="paint0_linear_2022_2434" x1="25.9896" y1="23.1602" x2="16.5407" y2="9.90762" gradientUnits="userSpaceOnUse">
<stop stop-color="#A87327"/>
<stop offset="0.29" stop-color="#EFD67B"/>
<stop offset="0.35" stop-color="#F1DA88"/>
<stop offset="0.44" stop-color="#F6E3A9"/>
<stop offset="0.48" stop-color="#F8E7B9"/>
<stop offset="0.54" stop-color="#F6E3AC"/>
<stop offset="0.63" stop-color="#F1DA8B"/>
<stop offset="0.67" stop-color="#EFD67B"/>
<stop offset="0.73" stop-color="#E6C970"/>
<stop offset="0.85" stop-color="#CEA753"/>
<stop offset="1" stop-color="#A87327"/>
</linearGradient>
<radialGradient id="paint1_radial_2022_2434" cx="0" cy="0" r="1" gradientUnits="userSpaceOnUse" gradientTransform="translate(20.7887 15.4351) scale(10.3793 10.1728)">
<stop stop-color="#DE5C48"/>
<stop offset="0.65" stop-color="#940019"/>
<stop offset="0.99" stop-color="#59000A"/>
</radialGradient>
<radialGradient id="paint2_radial_2022_2434" cx="0" cy="0" r="1" gradientUnits="userSpaceOnUse" gradientTransform="translate(20.4071 15.9261) scale(17.311 16.9666)">
<stop stop-color="#940019"/>
<stop offset="0.99" stop-color="#59000A"/>
</radialGradient>
<radialGradient id="paint3_radial_2022_2434" cx="0" cy="0" r="1" gradientUnits="userSpaceOnUse" gradientTransform="translate(20.7888 15.435) scale(10.3793 10.1728)">
<stop stop-color="#DE5C48"/>
<stop offset="0.65" stop-color="#940019"/>
<stop offset="0.99" stop-color="#59000A"/>
</radialGradient>
<radialGradient id="paint4_radial_2022_2434" cx="0" cy="0" r="1" gradientUnits="userSpaceOnUse" gradientTransform="translate(20.4071 15.9261) scale(17.3115 16.9671)">
<stop stop-color="#940019"/>
<stop offset="0.99" stop-color="#59000A"/>
</radialGradient>
<radialGradient id="paint5_radial_2022_2434" cx="0" cy="0" r="1" gradientUnits="userSpaceOnUse" gradientTransform="translate(20.7887 15.435) scale(10.3793 10.1728)">
<stop stop-color="#DE5C48"/>
<stop offset="0.65" stop-color="#940019"/>
<stop offset="0.99" stop-color="#59000A"/>
</radialGradient>
<radialGradient id="paint6_radial_2022_2434" cx="0" cy="0" r="1" gradientUnits="userSpaceOnUse" gradientTransform="translate(20.407 15.9261) scale(17.3115 16.9671)">
<stop stop-color="#940019"/>
<stop offset="0.99" stop-color="#59000A"/>
</radialGradient>
<radialGradient id="paint7_radial_2022_2434" cx="0" cy="0" r="1" gradientUnits="userSpaceOnUse" gradientTransform="translate(20.7888 15.4351) scale(10.3798 10.1733)">
<stop stop-color="#DE5C48"/>
<stop offset="0.65" stop-color="#940019"/>
<stop offset="0.99" stop-color="#59000A"/>
</radialGradient>
<radialGradient id="paint8_radial_2022_2434" cx="0" cy="0" r="1" gradientUnits="userSpaceOnUse" gradientTransform="translate(20.4071 15.9261) scale(17.3115 16.9671)">
<stop stop-color="#940019"/>
<stop offset="0.99" stop-color="#59000A"/>
</radialGradient>
<radialGradient id="paint9_radial_2022_2434" cx="0" cy="0" r="1" gradientUnits="userSpaceOnUse" gradientTransform="translate(20.7886 15.4351) scale(10.3793 10.1728)">
<stop stop-color="#DE5C48"/>
<stop offset="0.65" stop-color="#940019"/>
<stop offset="0.99" stop-color="#59000A"/>
</radialGradient>
<radialGradient id="paint10_radial_2022_2434" cx="0" cy="0" r="1" gradientUnits="userSpaceOnUse" gradientTransform="translate(20.407 15.9261) scale(17.311 16.9666)">
<stop stop-color="#940019"/>
<stop offset="0.99" stop-color="#59000A"/>
</radialGradient>
<radialGradient id="paint11_radial_2022_2434" cx="0" cy="0" r="1" gradientUnits="userSpaceOnUse" gradientTransform="translate(20.6244 12.5162) scale(0.224811 3.60805)">
<stop stop-color="#621F17"/>
<stop offset="0.19" stop-color="#561B14" stop-opacity="0.87"/>
<stop offset="0.54" stop-color="#35110C" stop-opacity="0.54"/>
<stop offset="1" stop-opacity="0"/>
</radialGradient>
<radialGradient id="paint12_radial_2022_2434" cx="0" cy="0" r="1" gradientUnits="userSpaceOnUse" gradientTransform="translate(18.5318 18.5119) rotate(34.9949) scale(0.240123 3.67773)">
<stop stop-color="#621F17"/>
<stop offset="0.19" stop-color="#561B14" stop-opacity="0.87"/>
<stop offset="0.54" stop-color="#35110C" stop-opacity="0.54"/>
<stop offset="1" stop-opacity="0"/>
</radialGradient>
<radialGradient id="paint13_radial_2022_2434" cx="0" cy="0" r="1" gradientUnits="userSpaceOnUse" gradientTransform="translate(17.531 14.8757) rotate(109.408) scale(0.248422 3.70131)">
<stop stop-color="#621F17"/>
<stop offset="0.19" stop-color="#561B14" stop-opacity="0.87"/>
<stop offset="0.54" stop-color="#35110C" stop-opacity="0.54"/>
<stop offset="1" stop-opacity="0"/>
</radialGradient>
<radialGradient id="paint14_radial_2022_2434" cx="0" cy="0" r="1" gradientUnits="userSpaceOnUse" gradientTransform="translate(22.4833 18.1584) rotate(-34.9949) scale(0.240044 3.64429)">
<stop stop-color="#621F17"/>
<stop offset="0.19" stop-color="#561B14" stop-opacity="0.87"/>
<stop offset="0.54" stop-color="#35110C" stop-opacity="0.54"/>
<stop offset="1" stop-opacity="0"/>
</radialGradient>
</defs>
</svg>
