<svg width="13" height="14" viewBox="0 0 13 14" fill="none" xmlns="http://www.w3.org/2000/svg">
<path d="M0.861334 0.0029267V2.54324L1.68791 1.83605H6.50986L0 12.8172L10.0957 12.8333L8.45466 12.6972L9.20115 12.6386C9.0032 12.5961 3.5632 12.5346 3.5632 12.5346C4.64213 12.5098 7.6704 12.4527 9.29182 12.4219C9.18981 12.4172 9.08855 12.4025 8.9896 12.378L9.43235 12.356C8.12373 12.3165 5.87067 12.2813 5.87067 12.2813C6.49626 12.192 10.0912 12.2301 10.9193 12.2404V12.2316L7.40595 12.0207L9.72702 12.0749C9.56713 12.0583 9.40893 12.0289 9.25404 11.9871C9.61917 12.0114 9.98538 12.0168 10.3511 12.0032L9.94613 11.9578L10.5944 11.9431L10.9193 11.9724C10.5506 11.9402 8.22346 11.7338 7.94542 11.6796C8.05271 11.6796 9.49733 11.6532 10.7591 11.6269C9.16488 11.5888 7.61902 11.5302 7.02817 11.4438C7.02817 11.4438 8.97751 11.4014 10.9193 11.4204V11.1276H5.40071L11.9786 0L0.861334 0.0029267ZM3.01164 11.4614C3.01164 11.4614 4.34444 9.01335 5.84951 6.41447C7.0584 4.32951 8.96693 1.36899 8.96693 1.36899C8.96693 1.36899 7.59182 4.05279 6.09582 6.6707C5.31004 8.04847 3.01164 11.4614 3.01164 11.4614Z" fill="white"/>
</svg>
