<svg width="1058" height="567" viewBox="0 0 1058 567" fill="none" xmlns="http://www.w3.org/2000/svg">
<path d="M-11.5796 16.5366C-30.923 -6.36428 -71.1477 3.47419 -88.8421 11.256V12.6456C-90.3244 13.9426 -93.4556 16.5366 -94.1226 16.5366C-94.9564 16.5366 -99.4032 24.3184 -100.237 27.0976C-101.071 29.8768 -107.185 30.7106 -105.795 42.6613C-104.406 54.612 -95.5123 51.833 -95.5123 60.7263C-95.5123 69.6196 -88.8421 76.5681 -95.5123 83.5162C-102.182 90.4642 -99.959 97.4123 -101.071 107.14C-102.182 116.867 -88.8421 114.644 -80.5044 118.534C-72.1667 122.425 -78.281 131.875 -80.5044 144.659C-82.7278 157.444 -88.8421 148.272 -88.8421 159.111C-88.8421 169.95 -77.1694 169.95 -62.9953 183.012C-48.8212 196.075 -39.3719 171.062 -32.7017 201.355C-26.0316 231.649 -28.2549 226.368 -22.1406 238.319C-16.0263 250.27 -8.52243 273.615 -7.96658 277.506C-7.41074 281.397 -6.02113 298.628 -6.02113 301.685C-6.02113 304.742 -5.74319 306.966 -5.18736 308.911C-4.63151 310.857 -2.40813 319.472 -2.1302 325.031C-1.85228 330.589 1.48279 333.646 1.48279 337.815V352.823C1.48279 356.714 6.20748 370.61 6.20748 373.389C6.20748 376.169 8.43085 382.561 8.15293 385.896C7.87502 389.231 6.20748 385.896 3.15033 385.896C0.0931778 385.896 -4.35358 385.618 -6.29905 385.896C-8.24451 386.174 -12.6913 386.174 -22.1406 391.454C-31.59 396.735 -35.7589 389.231 -39.3719 391.454C-42.9849 393.678 -44.0965 400.07 -53.5459 406.74C-62.9953 413.41 -53.5459 434.255 -53.5459 461.769C-53.5459 489.283 -66.3304 477.333 -62.9953 494.842C-60.3272 508.849 -55.584 520.133 -53.5459 524.024L-12.6913 519.577C-9.63412 516.705 -3.07514 510.683 -1.29644 509.572C0.926941 508.182 5.65163 503.457 10.3763 502.068C15.101 500.678 18.714 500.956 25.94 500.956C33.166 500.956 38.7245 499.844 42.6154 499.288C46.5063 498.733 55.6777 492.34 60.1245 490.117C64.5713 487.894 62.07 488.449 60.9583 486.504C59.8466 484.559 59.2907 484.837 60.1245 482.613C60.9583 480.39 62.6258 479.834 63.7375 477.333C64.8492 474.831 68.7401 472.608 72.0752 469.551C75.4103 466.494 77.9116 463.159 78.1895 461.769C78.4674 460.379 86.2492 457.322 87.083 457.322C87.9168 457.322 90.1402 457.322 95.9765 458.712C101.813 460.101 107.927 458.712 110.151 458.712C112.374 458.712 120.99 460.657 124.881 463.159C128.771 465.66 134.886 469.273 137.109 470.94C139.332 472.608 139.888 475.387 139.888 477.611C139.888 479.834 138.777 480.112 137.943 482.891C137.109 485.67 133.218 490.395 133.496 491.507C133.774 492.618 133.774 495.398 134.886 497.899C135.997 500.4 137.109 502.901 137.943 510.683C138.777 518.465 138.777 517.353 138.777 518.743C138.777 520.133 139.332 528.192 140.444 531.805C141.556 535.418 143.501 537.642 145.447 539.865C147.392 542.089 151.561 541.811 153.507 541.811C155.452 541.811 163.234 540.699 169.626 541.811C176.018 542.922 181.021 540.421 190.47 540.699C199.92 540.977 196.862 542.089 198.252 542.922C199.642 543.756 202.143 545.98 205.756 549.593C209.369 553.206 217.151 558.486 220.208 559.598C223.265 560.709 239.94 566.268 241.886 565.99C243.831 565.712 255.226 565.434 261.341 564.322C267.455 563.211 266.621 559.042 268.567 558.764C270.512 558.486 275.793 556.819 277.738 555.985C279.294 555.318 281.351 554.225 282.185 553.761C284.038 553.391 288.966 552.65 293.858 552.65C299.972 552.65 302.473 553.206 304.141 553.761C305.808 554.317 313.868 555.985 319.704 555.151C325.541 554.595 328.32 550.704 329.987 549.593C331.655 548.481 338.047 537.92 339.437 535.696C340.826 533.473 347.775 532.083 348.608 532.083C349.442 532.083 351.665 534.029 361.671 525.969C367.674 521.3 372.51 521.615 374.177 522.356C377.049 527.729 382.793 539.365 382.793 542.922V552.372C382.793 554.595 384.182 558.764 386.962 561.821C389.741 564.878 398.079 563.211 401.136 564.322C404.193 565.434 408.64 560.432 412.808 558.764C416.977 557.096 420.59 553.206 421.424 552.372C422.258 551.538 425.871 548.759 428.372 547.925C430.873 547.091 435.598 545.424 437.266 545.146C438.933 544.868 453.663 547.647 455.331 547.925C456.998 548.203 465.336 549.87 466.725 550.148C468.115 550.426 475.063 553.206 477.842 555.985C480.622 558.764 482.289 559.598 485.624 560.431C488.959 561.265 493.406 561.265 500.076 561.821C506.746 562.377 515.362 554.317 521.754 551.26C528.146 548.203 528.424 545.98 530.092 543.756C531.759 541.533 531.482 538.198 535.65 537.92C539.819 537.642 537.04 536.53 537.318 535.696C537.596 534.863 538.43 533.751 538.708 531.528C538.985 529.304 540.375 525.413 540.931 524.024C541.487 522.634 542.598 522.078 545.378 521.244C548.157 520.411 550.102 520.133 553.993 519.855C557.884 519.577 560.385 518.743 561.497 517.909C562.609 517.076 567.056 515.686 570.669 513.74C574.282 511.795 575.671 509.85 576.783 510.961C577.895 512.073 578.173 512.629 579.84 512.629C581.508 512.629 583.453 513.185 584.287 512.629C585.121 512.073 586.51 510.683 586.51 506.237C586.51 501.79 586.788 497.065 586.51 494.842C586.232 492.618 591.513 467.605 593.18 463.714C594.848 459.823 598.461 454.821 599.573 453.153C600.684 451.486 599.295 452.042 598.461 450.93C597.627 449.818 596.793 448.707 596.237 446.205C595.793 444.204 596.979 444.26 597.627 444.538C602.537 444.816 613.024 445.538 615.692 446.205C619.027 447.039 625.141 446.483 627.921 446.483C630.7 446.483 630.7 445.649 630.7 444.538C630.7 443.426 630.7 440.647 630.144 438.701C629.588 436.756 630.978 435.366 631.812 435.366C632.645 435.366 634.591 434.81 637.37 434.255C640.149 433.699 647.653 425.083 649.043 422.582C650.432 420.08 649.043 417.857 649.043 415.634V406.74C649.043 404.239 651.266 401.46 654.045 400.07C656.825 398.68 670.165 395.623 676.001 395.623C681.838 395.623 735.199 382.561 736.033 382.283C736.866 382.005 745.76 378.67 748.817 378.114C751.874 377.558 750.763 378.114 751.318 379.504C751.874 380.893 751.041 381.171 751.318 385.062C751.596 388.953 751.874 388.675 752.986 390.621C754.098 392.566 754.653 391.454 757.433 392.01C760.212 392.566 760.768 392.288 761.602 393.122C762.435 393.956 766.326 397.291 767.438 398.68C768.55 400.07 769.661 399.792 771.607 398.68C773.552 397.569 774.942 397.847 776.054 398.68C777.165 399.514 777.443 400.348 777.443 402.571C777.443 404.795 776.331 407.296 776.054 410.631C775.776 413.966 774.942 414.8 774.942 416.745C774.942 418.691 774.386 421.192 775.498 422.026C776.609 422.86 783.002 422.304 784.669 422.026C786.337 421.748 789.394 419.803 792.173 416.745C793.563 415.078 794.952 417.023 797.454 416.745C799.955 416.467 800.233 414.8 800.233 412.299C800.233 409.797 804.68 404.239 806.069 402.571C807.459 400.904 813.017 397.291 818.298 394.79C823.578 392.288 833.584 389.509 834.417 387.841C835.251 386.174 834.973 385.896 835.251 384.506C835.529 383.117 835.807 381.727 839.976 380.893C842.755 380.06 843.589 378.114 843.589 376.725C843.589 375.335 842.755 372 842.199 370.332C841.643 368.665 846.09 363.106 847.202 360.049C848.313 356.992 848.869 355.602 849.981 353.935C851.093 352.267 851.926 352.823 854.15 351.989C856.373 351.156 857.485 349.488 858.041 348.376C858.597 347.265 860.264 345.319 861.098 344.485C861.932 343.652 864.711 340.595 871.381 340.595C878.051 340.595 893.337 339.205 894.449 340.595C895.56 341.984 898.062 345.319 898.34 346.431C898.617 347.543 903.342 348.376 905.01 347.543C906.677 346.709 906.677 346.431 906.677 345.319C906.677 344.208 907.233 341.15 906.677 338.371C906.121 335.592 906.955 335.87 908.345 335.87C909.734 335.87 914.459 335.036 918.906 335.036C923.353 335.036 922.519 335.036 924.464 336.982C926.41 338.927 929.189 340.872 930.301 342.818C931.412 344.763 934.747 345.041 939.194 346.431C943.641 347.821 943.641 348.932 943.641 351.989V363.106C943.641 365.052 942.251 366.997 940.862 369.221C939.472 371.444 939.75 375.057 939.194 376.447C938.638 377.836 939.75 380.615 940.862 383.673C941.973 386.73 943.641 385.618 943.641 387.563C943.641 389.509 943.919 390.065 943.641 392.566C943.363 395.067 944.753 398.958 947.254 399.236C949.755 399.514 955.036 397.291 959.205 397.291C963.373 397.291 970.044 396.179 980.327 397.291C990.61 398.402 988.664 400.07 990.054 402.849C991.444 405.629 993.111 408.964 993.111 413.688C993.111 418.413 991.444 418.135 991.444 418.969C991.444 419.803 988.664 421.192 988.664 422.026C988.664 422.86 990.888 425.917 991.444 427.029C991.888 427.918 1002 431.29 1007.01 432.865C1012.57 431.29 1024.35 427.918 1027.02 427.029C1030.35 425.917 1035.91 415.356 1032.02 408.964C1028.91 403.85 1036.84 390.899 1041.19 385.062C1044.16 382.839 1051.03 377.392 1054.81 373.389C1059.53 368.387 1054.81 355.88 1054.81 346.709C1054.81 337.537 1055.92 336.426 1054.81 326.143C1053.7 315.859 1040.36 314.47 1035.91 313.08C1031.46 311.691 1003.12 292.236 995.057 289.179C986.997 286.122 987.275 285.566 984.774 283.898C982.272 282.231 979.771 278.618 979.493 275.561C979.215 272.503 980.883 265.833 980.883 263.054C980.883 260.275 986.163 248.602 987.275 246.657C988.386 244.711 992.833 242.766 993.389 241.654C993.945 240.542 994.779 237.763 995.057 236.096C995.335 234.428 993.945 233.038 992.833 231.371C991.722 229.703 989.498 223.033 988.386 220.81C987.275 218.586 988.386 217.753 988.386 216.919C988.386 216.085 990.332 212.472 990.332 210.527C990.332 208.581 989.498 206.914 988.386 206.08C987.275 205.246 983.384 203.301 981.994 200.521C980.605 197.742 980.883 197.464 980.605 196.075C980.327 194.685 983.106 191.072 984.218 189.405C985.329 187.737 990.332 181.067 991.722 179.955C993.111 178.843 995.891 176.342 995.057 175.23C994.223 174.119 993.111 173.563 990.332 170.784C987.553 168.004 985.051 166.615 983.106 164.947C981.161 163.28 981.438 164.947 980.883 166.615C980.327 168.282 978.659 169.95 977.825 171.895C976.992 173.841 970.044 172.729 968.376 170.784C966.709 168.838 965.875 164.947 965.597 162.446C965.319 159.945 958.927 151.607 956.148 147.716C953.368 143.825 950.033 141.602 948.922 139.656C947.81 137.711 946.42 130.485 946.142 128.817C945.864 127.15 948.922 119.924 949.477 117.423C950.033 114.921 950.033 112.42 949.477 110.752C948.922 109.085 944.753 105.194 942.251 102.693C939.75 100.191 932.246 92.4095 930.857 91.5757C929.467 90.7419 928.633 90.7419 927.799 91.5757C926.966 92.4095 925.854 93.5212 923.908 92.9653C921.963 92.4095 907.511 83.7939 905.01 81.8484C902.508 79.9029 898.895 79.9029 896.672 79.3471C894.449 78.7912 889.724 81.5705 888.612 82.4042C887.501 83.238 886.667 86.851 886.111 88.2406C885.555 89.6302 879.719 90.1861 878.885 89.0744C878.051 87.9627 879.163 85.1835 878.885 82.4042C878.607 79.625 879.719 77.1237 879.719 76.012C879.719 74.9003 876.94 71.8432 875.272 71.8432C873.604 71.8432 872.493 71.2873 866.1 71.8432C859.708 72.399 858.597 73.2328 853.316 73.5107C848.036 73.7886 840.81 75.1783 838.03 74.9003C835.251 74.6224 827.191 74.6224 825.246 69.0639C823.3 63.5055 822.467 58.2252 821.633 56.5574C820.799 54.8897 816.074 55.7237 812.183 52.6667C808.293 49.6098 807.737 47.6639 800.789 42.6615C793.841 37.6591 792.729 39.6041 788.56 34.6017C784.391 29.5993 779.111 25.4301 776.887 24.0407C774.664 22.6513 764.103 18.7599 761.602 17.0926C759.1 15.4253 758.544 12.9238 756.043 8.47678C753.542 4.02979 749.373 3.47438 747.15 1.80684C744.926 0.139306 742.147 1.52892 740.202 1.80684C738.256 2.08477 726.305 6.25361 723.526 9.03284C720.747 11.8121 720.469 12.3679 720.747 12.9238C721.025 13.4796 722.414 14.3134 723.526 17.0926C724.638 19.8718 724.36 22.3731 723.526 24.0407C722.692 25.7082 718.801 33.49 718.801 34.6017V45.7187C718.801 46.5524 719.357 70.7317 718.246 74.9005C717.356 78.2356 719.728 83.5162 721.025 85.7395C722.692 86.9439 726.194 89.4637 726.861 89.9084C727.695 90.4642 735.755 94.0772 743.537 90.7421C751.318 87.4071 751.318 80.1811 752.708 79.0694C754.098 77.9577 756.043 62.1161 756.321 58.2252C756.599 54.3343 759.656 43.2173 759.934 42.6615C760.212 42.1057 763.269 41.8277 764.103 43.2173C764.937 44.607 767.16 51.2771 767.16 52.6667C767.16 54.0563 772.718 65.4512 773.83 66.5629C774.942 67.6746 784.669 76.2902 785.225 77.9577C785.781 79.6252 791.339 92.1318 791.617 94.0772C791.895 96.0227 790.506 99.0798 790.228 100.747C789.95 102.415 786.615 103.249 786.059 103.249C785.503 103.249 781.334 105.75 780.222 103.249C779.111 100.747 778.277 99.0798 777.999 96.5785C777.721 94.0772 776.609 90.7421 775.22 89.3525C773.83 87.9629 770.773 89.6304 770.773 90.7421C770.773 91.8538 769.383 100.192 769.105 102.415C768.828 104.638 768.55 107.418 767.716 108.807C766.882 110.197 761.046 112.698 760.212 111.586C759.378 110.475 758.267 108.251 756.599 105.75C754.931 103.249 752.986 101.581 751.318 100.747C749.651 99.9136 746.594 100.192 745.76 100.192C744.926 100.192 737.978 101.859 731.03 103.249C724.082 104.638 726.861 106.584 726.583 108.251C726.305 109.919 726.305 114.088 724.082 114.088C721.859 114.088 721.859 112.976 719.079 111.586C716.3 110.197 711.853 106.584 710.186 105.75C708.518 104.916 701.292 97.4123 700.737 96.0227C700.181 94.6331 688.23 88.7967 687.674 89.9084C687.118 91.0201 684.895 92.4097 684.617 95.1889C684.339 97.9681 687.396 101.859 688.23 102.415C689.064 102.971 694.622 102.415 697.401 103.249C700.181 104.082 704.072 106.306 705.183 108.251C706.295 110.197 704.627 117.145 704.072 117.423C703.516 117.701 694.344 120.202 692.955 120.758C691.565 121.314 668.22 123.537 665.162 123.537C662.105 123.537 644.596 123.815 644.596 125.482C644.596 127.15 644.04 128.818 644.596 131.319C645.152 133.82 644.596 136.321 639.871 138.267C635.147 140.212 618.193 144.937 618.193 146.327C618.193 147.716 617.36 147.438 617.082 150.218C616.804 152.997 612.913 156.054 612.079 156.054C611.245 156.054 606.243 154.664 603.186 153.275C600.128 151.885 599.573 148.55 599.85 146.327C600.128 144.103 596.238 141.602 594.57 141.602C592.902 141.602 576.505 159.945 576.505 161.612C576.505 163.28 574.282 171.618 572.614 174.397C570.947 177.176 564.832 188.849 562.053 189.127C559.274 189.405 557.606 185.236 557.05 183.013C556.495 180.789 556.495 166.893 555.661 161.612C554.827 156.332 546.489 139.657 545.1 139.657C543.71 139.657 536.762 134.654 534.539 133.264C532.315 131.875 520.087 121.869 513.694 119.924C507.302 117.979 508.97 131.041 510.359 133.264C511.749 135.488 517.863 147.438 517.863 149.384C517.863 151.329 521.198 158.555 522.588 163.002C523.978 167.449 532.037 181.901 531.759 187.181C531.482 192.462 533.705 194.963 534.539 198.02C535.372 201.078 546.489 212.472 551.77 216.641C557.05 220.81 556.772 218.309 562.053 219.42C567.333 220.532 566.5 216.641 570.113 214.696C573.726 212.75 572.614 214.696 572.614 216.641C572.614 218.587 572.058 218.309 570.113 221.366C568.167 224.423 567.334 224.423 564.832 225.813C562.331 227.202 561.775 227.48 554.827 229.148C547.879 230.815 547.601 227.48 544.544 225.813C541.487 224.145 531.482 219.698 528.146 213.584L527.912 213.154C524.692 207.248 522.205 202.686 517.863 200.244C513.417 197.742 513.694 199.966 513.694 202.745C513.694 205.524 511.749 211.917 511.749 214.696C511.749 217.475 511.471 224.145 508.97 227.48C506.468 230.815 502.578 231.093 502.022 230.259C501.466 229.426 500.91 228.314 500.91 225.813C500.91 223.311 504.523 220.81 503.967 218.309C503.411 215.807 500.91 209.693 500.91 206.636C500.91 203.579 503.967 198.298 505.635 195.519C507.302 192.74 518.697 189.961 520.087 187.181C521.476 184.402 520.087 180.511 517.863 176.342C515.64 172.174 512.305 168.561 510.359 165.781C508.414 163.002 509.526 152.997 508.97 151.051C508.414 149.106 504.523 145.215 500.91 142.992C497.297 140.768 497.297 142.992 497.297 145.215C497.297 147.438 497.019 151.051 497.297 154.386C497.519 157.055 495.907 159.574 495.074 160.501C493.869 161.705 491.405 164.225 491.183 164.67C490.905 165.225 486.458 166.893 483.401 164.948C480.955 163.391 483.123 162.076 484.513 161.612C486.643 160.593 491.127 157.722 492.016 154.386C493.128 150.218 491.739 152.163 485.902 152.163C482.011 153.275 481.733 152.441 480.066 149.384C478.398 146.327 478.954 147.716 477.009 147.438C475.063 147.16 473.396 148.55 470.061 151.051C466.726 153.553 459.222 163.002 459.5 164.114L459.5 164.115C459.778 165.227 460.333 167.449 460.333 168.005C460.333 168.561 463.946 178.844 463.946 182.457C463.946 186.07 465.058 191.072 465.058 196.631C465.058 201.078 461.908 202.56 460.333 202.745C459.87 202.56 458.777 201.411 458.11 198.298C457.276 194.407 453.107 175.787 452.273 172.174C451.44 168.561 452.829 161.612 453.941 160.501C455.053 159.389 460.333 137.989 460.333 135.766C460.333 133.542 458.11 131.319 453.941 130.485C449.772 129.651 440.323 130.485 438.099 131.319C435.876 132.153 424.759 136.321 423.092 132.708C421.424 129.095 416.699 110.197 413.92 106.584C411.141 102.971 397.245 101.025 393.632 99.3577C390.019 97.6902 385.85 97.9681 382.515 99.3577C379.847 100.469 366.395 95.1889 360.003 92.4097C357.224 89.4452 350.053 81.0149 343.606 71.0096C340.938 66.7852 338.047 68.1378 336.936 69.3421V71.0096C337.121 72.214 336.602 75.8455 333.045 80.7369C328.598 86.8512 326.097 82.4045 323.317 82.4045C320.538 82.4045 320.26 82.1265 316.369 82.4045C312.478 82.6824 308.865 86.2954 302.473 87.4071C296.081 88.5188 299.138 93.2435 298.026 96.3006C296.915 99.3577 296.081 105.75 296.081 107.14C296.081 108.529 324.707 147.716 323.317 147.994C321.928 148.272 311.922 141.88 306.086 137.711C300.25 133.542 296.915 134.654 292.468 134.654C288.021 134.654 287.187 139.379 284.686 137.711C282.185 136.044 280.517 131.875 274.681 131.875C268.844 131.875 268.844 129.095 263.842 129.095C258.839 129.095 261.896 131.875 254.67 134.654C247.444 137.433 245.499 134.654 236.328 131.875C227.156 129.095 232.437 129.373 232.159 124.093C231.881 118.812 235.772 118.534 227.99 118.534C220.208 118.534 219.93 116.867 216.317 114.644C212.704 112.42 210.759 116.033 207.146 118.534C203.533 121.036 201.587 124.093 199.642 131.875C197.696 139.657 196.862 138.545 192.416 144.659C187.969 150.773 176.574 150.496 174.073 148.272C171.572 146.049 173.517 138.545 174.073 134.654C174.629 130.763 171.294 131.875 169.07 131.875C166.847 131.875 163.512 132.986 162.122 131.875C160.733 130.763 158.509 126.316 156.564 124.093C154.618 121.869 151.839 123.815 148.504 124.093C145.169 124.371 142.945 123.537 139.61 121.036C136.275 118.534 139.332 114.921 139.61 110.197C139.888 105.472 142.39 101.859 142.945 97.4123C143.501 92.9655 142.945 92.4097 137.665 87.9629C132.384 83.5162 128.493 82.1265 127.938 83.5162C127.382 84.9058 111.262 90.7421 110.429 87.9629C109.595 85.1837 108.761 78.7915 107.093 76.5681C105.426 74.3447 101.535 70.1759 99.8675 69.8979C98.1999 69.62 97.922 71.0096 95.1428 74.3447C92.3636 77.6798 80.9687 77.6798 73.7427 74.3447C66.5167 71.0096 50.3972 48.7758 46.2284 48.4979C42.0595 48.22 25.6621 53.2226 18.4361 51.833C11.2101 50.4433 12.5997 45.1626 -11.5796 16.5366Z" stroke="#841818" stroke-width="2"/>
</svg>
