<svg width="375" height="230" viewBox="0 0 375 230" fill="none" xmlns="http://www.w3.org/2000/svg">
<path d="M4.1024 7.26962C-3.70344 -1.97178 -19.9357 1.99843 -27.0761 5.13872V5.69947C-27.6743 6.22285 -28.9378 7.26962 -29.207 7.26962C-29.5435 7.26962 -31.3379 10.4099 -31.6744 11.5314C-32.0108 12.653 -34.4782 12.9894 -33.9174 17.812C-33.3567 22.6346 -29.7678 21.5131 -29.7678 25.1019C-29.7678 28.6907 -27.0761 31.4947 -29.7678 34.2986C-32.4595 37.1024 -31.5622 39.9062 -32.0108 43.8316C-32.4594 47.7569 -27.0761 46.8597 -23.7115 48.4298C-20.3469 50 -22.8143 53.8132 -23.7115 58.9722C-24.6087 64.1312 -27.0761 60.4302 -27.0761 64.8041C-27.0761 69.1779 -22.3657 69.178 -16.6459 74.4492C-10.9261 79.7204 -7.11289 69.6266 -4.42122 81.8513C-1.72955 94.076 -2.62677 91.9451 -0.159412 96.7676C2.30795 101.59 5.33608 111.011 5.56039 112.581C5.78469 114.151 6.34546 121.105 6.34546 122.339C6.34546 123.572 6.45761 124.469 6.68192 125.254C6.90622 126.04 7.80345 129.516 7.9156 131.759C8.02775 134.002 9.37358 135.236 9.37358 136.918V142.975C9.37358 144.545 11.2802 150.152 11.2802 151.274C11.2802 152.395 12.1774 154.975 12.0653 156.321C11.9531 157.667 11.2802 156.321 10.0465 156.321C8.81282 156.321 7.01838 156.209 6.2333 156.321C5.44823 156.433 3.65379 156.433 -0.159412 158.564C-3.97261 160.695 -5.65491 157.667 -7.11289 158.564C-8.57088 159.461 -9.01949 162.041 -12.8327 164.732C-16.6459 167.424 -12.8327 175.835 -12.8327 186.939C-12.8327 198.042 -17.9917 193.219 -16.6459 200.285C-15.5692 205.937 -13.6551 210.491 -12.8327 212.061L3.65379 210.266C4.88747 209.107 7.53428 206.678 8.25206 206.229C9.14928 205.668 11.0559 203.762 12.9625 203.201C14.8691 202.64 16.3271 202.752 19.243 202.752C22.159 202.752 24.4021 202.304 25.9722 202.079C27.5424 201.855 31.2434 199.275 33.0378 198.378C34.8323 197.481 33.8229 197.705 33.3743 196.92C32.9257 196.135 32.7014 196.247 33.0378 195.35C33.3743 194.453 34.0472 194.229 34.4958 193.219C34.9445 192.21 36.5146 191.313 37.8604 190.079C39.2063 188.845 40.2156 187.499 40.3278 186.939C40.4399 186.378 43.5802 185.144 43.9167 185.144C44.2531 185.144 45.1504 185.144 47.5056 185.705C49.8608 186.266 52.3282 185.705 53.2254 185.705C54.1226 185.705 57.5993 186.49 59.1695 187.499C60.7396 188.509 63.207 189.967 64.1042 190.64C65.0014 191.313 65.2257 192.434 65.2257 193.331C65.2257 194.229 64.7771 194.341 64.4407 195.462C64.1042 196.584 62.5341 198.49 62.6462 198.939C62.7584 199.388 62.7584 200.509 63.207 201.518C63.6556 202.528 64.1042 203.537 64.4407 206.678C64.7771 209.818 64.7771 209.369 64.7771 209.93C64.7771 210.491 65.0014 213.743 65.45 215.201C65.8987 216.659 66.6837 217.556 67.4688 218.454C68.2539 219.351 69.9362 219.239 70.7212 219.239C71.5063 219.239 74.6466 218.79 77.2261 219.239C79.8056 219.687 81.8244 218.678 85.6376 218.79C89.4508 218.902 88.2171 219.351 88.7778 219.687C89.3386 220.024 90.348 220.921 91.806 222.379C93.264 223.837 96.4042 225.968 97.6379 226.416C98.8716 226.865 105.601 229.108 106.386 228.996C107.171 228.884 111.769 228.772 114.237 228.323C116.704 227.874 116.367 226.192 117.153 226.08C117.938 225.968 120.068 225.295 120.854 224.958C121.482 224.689 122.312 224.248 122.648 224.061C123.396 223.912 125.385 223.613 127.358 223.613C129.826 223.613 130.835 223.837 131.508 224.061C132.181 224.286 135.433 224.958 137.789 224.622C140.144 224.398 141.265 222.828 141.938 222.379C142.611 221.93 145.191 217.669 145.752 216.771C146.312 215.874 149.116 215.313 149.453 215.313C149.789 215.313 150.686 216.098 154.724 212.846C157.146 210.962 159.098 211.089 159.771 211.388C160.93 213.556 163.247 218.252 163.247 219.687V223.5C163.247 224.398 163.808 226.08 164.93 227.314C166.051 228.547 169.416 227.874 170.649 228.323C171.883 228.772 173.678 226.753 175.36 226.08C177.042 225.407 178.5 223.837 178.837 223.5C179.173 223.164 180.631 222.042 181.64 221.706C182.65 221.37 184.556 220.697 185.229 220.584C185.902 220.472 191.846 221.594 192.519 221.706C193.192 221.818 196.554 222.491 197.117 222.603L197.118 222.603C197.678 222.715 200.482 223.837 201.604 224.958C202.725 226.08 203.398 226.416 204.744 226.753C206.09 227.089 207.884 227.089 210.576 227.314C213.268 227.538 216.744 224.286 219.324 223.052C221.903 221.818 222.015 220.921 222.688 220.024C223.361 219.126 223.249 217.781 224.931 217.669C226.614 217.556 225.492 217.108 225.604 216.771C225.717 216.435 226.053 215.986 226.165 215.089C226.277 214.192 226.838 212.622 227.062 212.061C227.287 211.5 227.735 211.276 228.857 210.939C229.978 210.603 230.763 210.491 232.334 210.379C233.904 210.266 234.913 209.93 235.362 209.593C235.81 209.257 237.605 208.696 239.063 207.911C240.521 207.126 241.081 206.341 241.53 206.79C241.979 207.238 242.091 207.463 242.764 207.463C243.437 207.463 244.222 207.687 244.558 207.463C244.895 207.238 245.455 206.678 245.455 204.883C245.455 203.089 245.568 201.182 245.455 200.285C245.343 199.388 247.474 189.294 248.147 187.724C248.82 186.154 250.278 184.135 250.727 183.462C251.175 182.789 250.614 183.013 250.278 182.565C249.942 182.116 249.605 181.667 249.381 180.658C249.201 179.851 249.68 179.873 249.942 179.985C251.923 180.097 256.155 180.389 257.232 180.658C258.577 180.994 261.045 180.77 262.166 180.77C263.288 180.77 263.288 180.434 263.288 179.985C263.288 179.537 263.288 178.415 263.063 177.63C262.839 176.845 263.4 176.284 263.736 176.284C264.073 176.284 264.858 176.06 265.979 175.835C267.101 175.611 270.129 172.134 270.69 171.125C271.251 170.116 270.69 169.218 270.69 168.321V164.732C270.69 163.723 271.587 162.601 272.709 162.041C273.83 161.48 279.213 160.246 281.569 160.246C283.924 160.246 305.457 154.975 305.794 154.863C306.13 154.751 309.719 153.405 310.953 153.181C312.186 152.956 311.738 153.181 311.962 153.741C312.186 154.302 311.85 154.414 311.962 155.984C312.074 157.555 312.186 157.442 312.635 158.227C313.084 159.013 313.308 158.564 314.429 158.788C315.551 159.013 315.775 158.9 316.112 159.237C316.448 159.573 318.018 160.919 318.467 161.48C318.916 162.041 319.364 161.928 320.149 161.48C320.934 161.031 321.495 161.143 321.944 161.48C322.392 161.816 322.504 162.153 322.504 163.05C322.504 163.947 322.056 164.957 321.944 166.302C321.832 167.648 321.495 167.985 321.495 168.77C321.495 169.555 321.271 170.564 321.719 170.901C322.168 171.237 324.748 171.013 325.42 170.901C326.093 170.789 327.327 170.004 328.449 168.77C329.009 168.097 329.57 168.882 330.579 168.77C331.589 168.658 331.701 167.985 331.701 166.975C331.701 165.966 333.495 163.723 334.056 163.05C334.617 162.377 336.86 160.919 338.991 159.91C341.122 158.9 345.159 157.779 345.496 157.106C345.832 156.433 345.72 156.321 345.832 155.76C345.944 155.199 346.057 154.639 347.739 154.302C348.86 153.966 349.197 153.181 349.197 152.62C349.197 152.059 348.86 150.713 348.636 150.04C348.412 149.367 350.206 147.124 350.655 145.891C351.103 144.657 351.328 144.096 351.776 143.423C352.225 142.75 352.561 142.975 353.459 142.638C354.356 142.302 354.805 141.629 355.029 141.18C355.253 140.732 355.926 139.947 356.263 139.61C356.599 139.274 357.72 138.04 360.412 138.04C363.104 138.04 369.272 137.479 369.721 138.04C370.169 138.601 371.179 139.947 371.291 140.395C371.403 140.844 373.31 141.18 373.983 140.844C374.656 140.507 374.656 140.395 374.656 139.947C374.656 139.498 374.88 138.264 374.656 137.143C374.431 136.021 374.768 136.133 375.329 136.133C375.889 136.133 377.796 135.797 379.59 135.797C381.385 135.797 381.048 135.797 381.833 136.582C382.618 137.367 383.74 138.152 384.189 138.937C384.637 139.722 385.983 139.834 387.777 140.395C389.572 140.956 389.572 141.405 389.572 142.638V147.124C389.572 147.909 389.011 148.694 388.45 149.592C387.89 150.489 388.002 151.947 387.777 152.508C387.553 153.068 388.002 154.19 388.45 155.424C388.899 156.657 389.572 156.209 389.572 156.994C389.572 157.779 389.684 158.003 389.572 159.013C389.46 160.022 390.021 161.592 391.03 161.704C392.039 161.816 394.17 160.919 395.852 160.919C397.535 160.919 400.226 160.471 404.376 160.919C408.526 161.368 407.741 162.041 408.301 163.162C408.862 164.284 409.535 165.63 409.535 167.536C409.535 169.443 408.862 169.331 408.862 169.667C408.862 170.003 407.741 170.564 407.741 170.901C407.741 171.237 408.638 172.471 408.862 172.919C409.042 173.278 413.124 174.639 415.143 175.275C417.386 174.639 422.141 173.278 423.218 172.919C424.564 172.471 426.807 168.209 425.237 165.63C423.98 163.566 427.181 158.34 428.938 155.984C430.134 155.087 432.908 152.889 434.433 151.274C436.34 149.255 434.433 144.208 434.433 140.507C434.433 136.806 434.882 136.358 434.433 132.208C433.985 128.058 428.601 127.498 426.807 126.937C425.012 126.376 413.573 118.525 410.32 117.292C407.068 116.058 407.18 115.834 406.171 115.161C405.161 114.488 404.152 113.03 404.04 111.796C403.928 110.562 404.6 107.871 404.6 106.749C404.6 105.628 406.731 100.917 407.18 100.132C407.629 99.3472 409.423 98.5621 409.647 98.1135C409.872 97.6649 410.208 96.5433 410.32 95.8704C410.432 95.1975 409.872 94.6367 409.423 93.9638C408.974 93.2909 408.077 90.5992 407.629 89.702C407.18 88.8048 407.629 88.4683 407.629 88.1319C407.629 87.7954 408.414 86.3374 408.414 85.5524C408.414 84.7673 408.077 84.0944 407.629 83.7579C407.18 83.4214 405.61 82.6364 405.049 81.5148C404.488 80.3933 404.6 80.2812 404.488 79.7204C404.376 79.1596 405.498 77.7016 405.946 77.0287C406.395 76.3558 408.414 73.6641 408.974 73.2155C409.535 72.7669 410.657 71.7575 410.32 71.3089C409.984 70.8603 409.535 70.636 408.414 69.5145C407.292 68.393 406.283 67.8322 405.498 67.1593C404.713 66.4864 404.825 67.1593 404.6 67.8322C404.376 68.5051 403.703 69.178 403.367 69.9631C403.03 70.7482 400.226 70.2996 399.554 69.5145C398.881 68.7294 398.544 67.1593 398.432 66.1499C398.32 65.1405 395.74 61.7759 394.619 60.2058C393.497 58.6357 392.151 57.7384 391.703 56.9534C391.254 56.1683 390.693 53.2523 390.581 52.5794C390.469 51.9065 391.703 48.9905 391.927 47.9811C392.151 46.9717 392.151 45.9624 391.927 45.2895C391.703 44.6165 390.021 43.0464 389.011 42.037C388.002 41.0276 384.974 37.8874 384.413 37.5509C383.852 37.2144 383.516 37.2144 383.179 37.5509C382.843 37.8874 382.394 38.336 381.609 38.1117C380.824 37.8874 374.992 34.4106 373.983 33.6255C372.973 32.8405 371.515 32.8405 370.618 32.6162C369.721 32.3919 367.814 33.5134 367.366 33.8499C366.917 34.1863 366.581 35.6443 366.356 36.2051C366.132 36.7658 363.777 36.9901 363.44 36.5415C363.104 36.0929 363.552 34.9714 363.44 33.8499C363.328 32.7283 363.777 31.719 363.777 31.2703C363.777 30.8217 362.655 29.588 361.982 29.588C361.309 29.588 360.861 29.3637 358.281 29.588C355.702 29.8123 355.253 30.1488 353.122 30.261C350.991 30.3731 348.075 30.9339 346.954 30.8217C345.832 30.7096 342.58 30.7096 341.795 28.4665C341.01 26.2235 340.673 24.0926 340.337 23.4196C340 22.7466 338.094 23.0832 336.524 21.8496C334.953 20.616 334.729 19.8307 331.925 17.8121C329.122 15.7934 328.673 16.5783 326.991 14.5596C325.308 12.541 323.177 10.8585 322.28 10.2978C321.383 9.73715 317.121 8.16683 316.112 7.494C315.102 6.82117 314.878 5.81171 313.869 4.01718C312.859 2.22264 311.177 1.99851 310.28 1.32559C309.383 0.652676 308.261 1.21344 307.476 1.32559C306.691 1.43775 301.868 3.12004 300.747 4.24157C299.625 5.3631 299.513 5.5874 299.625 5.81171C299.737 6.03602 300.298 6.37247 300.747 7.494C301.195 8.61553 301.083 9.62491 300.747 10.2978C300.41 10.9707 298.84 14.111 298.84 14.5596V19.0458C298.84 19.3822 299.065 29.1395 298.616 30.8218C298.257 32.1676 299.214 34.2986 299.737 35.1958C300.41 35.6818 301.823 36.6986 302.093 36.8781C302.429 37.1024 305.682 38.5604 308.822 37.2145C311.962 35.8687 311.962 32.9527 312.523 32.5041C313.084 32.0555 313.869 25.6628 313.981 24.0926C314.093 22.5225 315.327 18.0364 315.439 17.8121C315.551 17.5878 316.785 17.4756 317.121 18.0364C317.458 18.5971 318.355 21.2888 318.355 21.8496C318.355 22.4103 320.598 27.0086 321.047 27.4572C321.495 27.9058 325.42 31.3826 325.645 32.0555C325.869 32.7284 328.112 37.7753 328.224 38.5604C328.336 39.3454 327.776 40.5791 327.664 41.252C327.551 41.925 326.206 42.2614 325.981 42.2614C325.757 42.2614 324.075 43.2708 323.626 42.2614C323.177 41.252 322.841 40.5791 322.729 39.5697C322.617 38.5604 322.168 37.2145 321.607 36.6538C321.047 36.093 319.813 36.7659 319.813 37.2145C319.813 37.6631 319.252 41.0277 319.14 41.925C319.028 42.8222 318.916 43.9437 318.579 44.5045C318.243 45.0652 315.887 46.0746 315.551 45.626C315.215 45.1774 314.766 44.2802 314.093 43.2708C313.42 42.2614 312.635 41.5885 311.962 41.252C311.289 40.9156 310.056 41.0277 309.719 41.0277C309.383 41.0277 306.579 41.7006 303.775 42.2614C300.971 42.8222 302.093 43.6072 301.98 44.2802C301.868 44.9531 301.868 46.6354 300.971 46.6354C300.074 46.6354 300.074 46.1868 298.952 45.626C297.831 45.0652 296.036 43.6072 295.363 43.2708C294.691 42.9343 291.775 39.9062 291.55 39.3454C291.326 38.7847 286.503 36.4295 286.279 36.8781C286.055 37.3267 285.158 37.8874 285.045 39.009C284.933 40.1305 286.167 41.7006 286.503 41.925C286.84 42.1493 289.083 41.9249 290.204 42.2614C291.326 42.5979 292.896 43.4951 293.345 44.2802C293.793 45.0652 293.12 47.8691 292.896 47.9812C292.672 48.0934 288.971 49.1027 288.41 49.327C287.849 49.5514 278.428 50.4486 277.195 50.4486C275.961 50.4486 268.895 50.5607 268.895 51.2336C268.895 51.9066 268.671 52.5795 268.895 53.5889C269.12 54.5982 268.895 55.6076 266.989 56.3927C265.082 57.1777 258.241 59.0844 258.241 59.6451C258.241 60.2059 257.904 60.0937 257.792 61.2153C257.68 62.3368 256.11 63.5705 255.773 63.5705C255.437 63.5705 253.418 63.0097 252.185 62.4489C250.951 61.8882 250.727 60.5423 250.839 59.6451C250.951 58.7479 249.381 57.7385 248.708 57.7385C248.035 57.7385 241.418 65.1406 241.418 65.8135C241.418 66.4865 240.521 69.851 239.848 70.9726C239.175 72.0941 236.708 76.8045 235.586 76.9167C234.464 77.0288 233.792 75.3465 233.567 74.4493C233.343 73.5521 233.343 67.9444 233.006 65.8135C232.67 63.6826 229.305 56.9534 228.745 56.9534C228.184 56.9534 225.38 54.9347 224.483 54.3739C223.586 53.8132 218.651 49.7757 216.071 48.9906C213.492 48.2055 214.165 53.4767 214.726 54.3739C215.286 55.2712 217.754 60.0937 217.754 60.8788C217.754 61.6639 219.1 64.5798 219.66 66.3743C220.221 68.1687 223.473 74.0007 223.361 76.1316C223.249 78.2625 224.146 79.2719 224.483 80.5056C224.819 81.7392 229.305 86.3375 231.436 88.0198C233.567 89.7021 233.455 88.6927 235.586 89.1413C237.717 89.59 237.38 88.0198 238.838 87.2347C240.296 86.4497 239.848 87.2347 239.848 88.0198C239.848 88.8049 239.624 88.6927 238.838 89.9264C238.053 91.1601 237.717 91.1601 236.708 91.7209C235.698 92.2816 235.474 92.3938 232.67 93.0667C229.866 93.7396 229.754 92.3938 228.52 91.7209C227.287 91.0479 223.249 89.2535 221.903 86.7861L221.809 86.6127C220.51 84.2294 219.506 82.3884 217.754 81.4028C215.959 80.3934 216.071 81.2906 216.071 82.4122C216.071 83.5337 215.286 86.1132 215.286 87.2347C215.286 88.3563 215.174 91.0479 214.165 92.3938C213.155 93.7396 211.585 93.8518 211.361 93.5153C211.137 93.1788 210.912 92.7302 210.912 91.7209C210.912 90.7115 212.37 89.7021 212.146 88.6927C211.922 87.6833 210.912 85.216 210.912 83.9823C210.912 82.7486 212.146 80.6177 212.819 79.4962C213.492 78.3747 218.09 77.2531 218.651 76.1316C219.212 75.0101 218.651 73.4399 217.754 71.7576C216.856 70.0753 215.511 68.6173 214.726 67.4958C213.94 66.3743 214.389 62.3368 214.165 61.5517C213.94 60.7666 212.37 59.1965 210.912 58.2993C209.454 57.4021 209.454 58.2993 209.454 59.1965C209.454 60.0937 209.342 61.5517 209.454 62.8976C209.544 63.9742 208.894 64.9911 208.557 65.3649C208.071 65.8509 207.077 66.8678 206.987 67.0472C206.875 67.2715 205.08 67.9444 203.847 67.1594C202.86 66.5313 203.735 66.0005 204.295 65.8135C205.155 65.4023 206.965 64.2434 207.323 62.8976C207.772 61.2153 207.211 62.0003 204.856 62.0003C203.286 62.4489 203.174 62.1125 202.501 60.8788C201.828 59.6451 202.052 60.2059 201.267 60.0937C200.482 59.9816 199.809 60.5423 198.463 61.5517C197.118 62.5611 194.089 66.3743 194.202 66.8229C194.314 67.2715 194.538 68.1687 194.538 68.393C194.538 68.6174 195.996 72.767 195.996 74.225C195.996 75.683 196.445 77.7017 196.445 79.9448C196.445 81.7393 195.174 82.3374 194.538 82.4122C194.351 82.3374 193.91 81.8738 193.641 80.6177C193.304 79.0476 191.622 71.5333 191.286 70.0753C190.949 68.6174 191.51 65.8135 191.959 65.3649C192.407 64.9163 194.538 56.2805 194.538 55.3833C194.538 54.4861 193.641 53.5889 191.959 53.2524C190.276 52.9159 186.463 53.2524 185.566 53.5889C184.669 53.9253 180.182 55.6076 179.51 54.1496C178.837 52.6916 176.93 45.0652 175.809 43.6072C174.687 42.1493 169.079 41.3642 167.621 40.6913C166.163 40.0184 164.481 40.1305 163.135 40.6913C162.059 41.1399 156.63 39.009 154.051 37.8874C152.929 36.6911 150.036 33.2892 147.434 29.2517C146.357 27.5469 145.191 28.0928 144.742 28.5788V29.2517C144.817 29.7377 144.608 31.2031 143.172 33.177C141.378 35.6444 140.368 33.8499 139.247 33.8499C138.125 33.8499 138.013 33.7378 136.443 33.8499C134.873 33.9621 133.415 35.4201 130.835 35.8687C128.256 36.3173 129.489 38.2239 129.041 39.4576C128.592 40.6913 128.256 43.2708 128.256 43.8316C128.256 44.3923 139.807 60.2059 139.247 60.318C138.686 60.4302 134.648 57.8507 132.293 56.1684C129.938 54.4861 128.592 54.9347 126.798 54.9347C125.003 54.9347 124.667 56.8413 123.657 56.1684C122.648 55.4955 121.975 53.8132 119.62 53.8132C117.265 53.8132 117.265 52.6916 115.246 52.6916C113.227 52.6916 114.461 53.8132 111.545 54.9347C108.629 56.0562 107.844 54.9347 104.143 53.8132C100.442 52.6916 102.573 52.8038 102.46 50.6729C102.348 48.542 103.918 48.4298 100.778 48.4298C97.6379 48.4298 97.5258 47.7569 96.0678 46.8597C94.6098 45.9625 93.8247 47.4204 92.3667 48.4298C90.9087 49.4392 90.1237 50.6729 89.3386 53.8132C88.5535 56.9534 88.2171 56.5048 86.4226 58.9722C84.6282 61.4396 80.0299 61.3274 79.0205 60.4302C78.0112 59.533 78.7962 56.5048 79.0205 54.9347C79.2449 53.3646 77.899 53.8132 77.0018 53.8132C76.1046 53.8132 74.7587 54.2618 74.198 53.8132C73.6372 53.3646 72.74 51.5701 71.9549 50.6729C71.1698 49.7757 70.0483 50.5607 68.7025 50.6729C67.3566 50.785 66.4594 50.4486 65.1136 49.4392C63.7677 48.4298 65.0014 46.9718 65.1136 45.0652C65.2257 43.1586 66.2351 41.7006 66.4594 39.9062C66.6837 38.1118 66.4594 37.8874 64.3285 36.093C62.1976 34.2986 60.6275 33.7378 60.4032 34.2986C60.1789 34.8593 53.674 37.2145 53.3375 36.093C53.0011 34.9715 52.6646 32.392 51.9917 31.4947C51.3188 30.5975 49.7486 28.9152 49.0757 28.8031C48.4028 28.6909 48.2906 29.2517 47.1691 30.5975C46.0476 31.9433 41.4493 31.9433 38.5333 30.5975C35.6174 29.2517 29.1125 20.2794 27.4302 20.1673C25.7479 20.0551 19.1309 22.0739 16.2149 21.5131C13.2989 20.9524 13.8597 18.8214 4.1024 7.26962Z" stroke="#841818" stroke-width="0.80708"/>
</svg>
