<svg width="214" height="29" viewBox="0 0 214 29" fill="none" xmlns="http://www.w3.org/2000/svg">
<path d="M100.825 7.4536L96.6115 3.31934H93.6739L89.46 7.4536L90.9705 8.9356L94.075 5.88801V23.2296H67.3133V25.3246H96.2103V5.88801L99.3166 8.9356L100.825 7.4536Z" fill="white"/>
<path d="M16.0621 16.9863C14.5178 16.9863 13.6161 17.8571 13.2949 18.9507H12.7766V17.0943H10.4833V28.4H12.7766V23.7224H13.2949C13.6019 24.8021 14.5036 25.537 16.0621 25.537C17.6969 25.537 19.5003 23.8565 19.5003 21.2634C19.5003 18.6703 17.6969 16.9863 16.0621 16.9863ZM14.9971 23.5865C13.6073 23.5865 12.7819 22.5416 12.7819 21.2634C12.7819 19.9851 13.6019 18.9385 14.9971 18.9385C16.3922 18.9385 17.2141 19.9834 17.2141 21.2634C17.2141 22.5434 16.3976 23.5865 14.9971 23.5865Z" fill="white"/>
<path d="M69.1202 3.20752C66.4151 3.20752 64.6117 4.88805 64.6117 7.48111C64.6117 10.0742 66.4151 11.7617 69.1202 11.7617C71.8253 11.7617 73.6287 10.0829 73.6287 7.48807C73.6287 4.89327 71.8253 3.20752 69.1202 3.20752ZM69.1202 9.80598C67.7304 9.80598 66.905 8.76109 66.905 7.48111C66.905 6.20112 67.7304 5.15798 69.1202 5.15798C70.51 5.15798 71.3372 6.20286 71.3372 7.48111C71.3372 8.75935 70.526 9.80598 69.1202 9.80598Z" fill="white"/>
<path d="M8.80229 3.31396H6.50899V9.6721H3.10099V3.31396H0.809464V11.6208H8.12956V13.93H10.3306V9.6721H8.80229V3.31396Z" fill="white"/>
<path d="M79.2236 2.42936C81.0873 2.42936 82.0813 1.49941 82.218 0H80.4306C80.3685 0.539858 80.0632 0.989159 79.2236 0.989159C78.4284 0.989159 78.0769 0.539858 78.0148 0H76.2345C76.3641 1.49941 77.374 2.42936 79.2236 2.42936Z" fill="white"/>
<path d="M79.513 3.31396L77.7717 9.59721L77.6191 10.872H77.1753L77.2658 8.39734V3.31396H75.0045V11.6208H79.3302L81.0573 5.33756L81.2099 4.0628H81.6536L81.5614 6.53744V11.6208H83.8227V3.31396H79.513Z" fill="white"/>
<path d="M17.9452 5.33756L18.0978 4.0628H18.5398L18.4493 6.53744V11.6208H20.7106V3.31396H16.4009L14.6579 9.59721L14.5052 10.872H14.0615L14.1538 8.39734V3.31396H11.8924V11.6208H16.2181L17.9452 5.33756Z" fill="white"/>
<path d="M26.6322 11.6205H26.9233V14.6193H29.1704V11.6205H29.4598C32.3495 11.6205 33.9381 9.86681 33.9381 7.46706C33.9381 5.09691 32.3175 3.35891 29.5521 3.31363H29.1704V0.165039H26.9233V3.31363H26.5346C23.7372 3.35891 22.1485 5.09691 22.1485 7.46706C22.1556 9.86681 23.7744 11.6205 26.6322 11.6205ZM29.1704 5.11258H29.4598C30.9437 5.15786 31.6306 6.17662 31.6306 7.46706C31.6306 8.78709 30.9437 9.79019 29.4598 9.83546H29.1704V5.11258ZM26.618 5.11258H26.9233V9.83546H26.5878C25.1501 9.79019 24.4472 8.79058 24.4472 7.46706C24.4472 6.17662 25.1501 5.15786 26.618 5.11258Z" fill="white"/>
<path d="M0.442032 25.4011H2.73533V19.043H6.35633V25.4011H8.64963V17.0942H0.442032V25.4011Z" fill="white"/>
<path d="M45.559 19.3286H43.6491V17.0942H41.3558V25.4011H45.559C47.744 25.4011 48.9315 24.1821 48.9315 22.357C48.9315 20.5319 47.744 19.3286 45.559 19.3286ZM45.2235 23.4524H43.6491V21.2181H45.2235C46.3382 21.2181 46.6435 21.6221 46.6435 22.3431C46.6435 23.0327 46.3382 23.4524 45.2235 23.4524Z" fill="white"/>
<path d="M52.5295 17.0942H50.2362V25.4011H52.5295V17.0942Z" fill="white"/>
<path d="M59.8494 21.2181V20.7984C61.4238 20.558 61.8818 19.9886 61.8818 18.9837C61.8818 17.8744 60.9339 17.0942 59.2069 17.0942H54.3629V25.4011H59.3453C61.2712 25.4011 62.3397 24.6662 62.3397 23.2713C62.3397 22.0731 61.7132 21.427 59.8494 21.2181ZM56.6242 18.78H58.5767C59.3258 18.78 59.5707 19.0952 59.5707 19.5445C59.5707 19.9938 59.3258 20.2951 58.5767 20.2951H56.6242V18.78ZM58.8252 23.7293H56.6242V21.953H58.8252C59.7429 21.953 60.018 22.3117 60.018 22.8516C60.018 23.3914 59.7429 23.7223 58.8252 23.7223V23.7293Z" fill="white"/>
<path d="M50.046 3.20752C47.3409 3.20752 45.5375 4.88805 45.5375 7.48111C45.5375 10.0742 47.3409 11.7617 50.046 11.7617C52.7511 11.7617 54.5545 10.0829 54.5545 7.48807C54.5545 4.89327 52.7511 3.20752 50.046 3.20752ZM50.046 9.80598C48.6561 9.80598 47.8308 8.76109 47.8308 7.48111C47.8308 6.20112 48.6561 5.15798 50.046 5.15798C51.4358 5.15798 52.2718 6.20809 52.2718 7.48111C52.2718 8.75413 51.4518 9.80598 50.046 9.80598Z" fill="white"/>
<path d="M44.462 7.48111C44.462 4.88805 42.6586 3.20752 41.0238 3.20752C39.4796 3.20752 38.5779 4.07826 38.2584 5.17191H37.7383V3.31375H35.4503V14.6195H37.7436V9.94181H38.2637C38.569 11.0216 39.4707 11.7547 41.0291 11.7547C42.6639 11.7617 44.462 10.0759 44.462 7.48111ZM39.9535 9.80598C38.5637 9.80598 37.7383 8.76109 37.7383 7.48111C37.7383 6.20112 38.5637 5.15798 39.9535 5.15798C41.3433 5.15798 42.1705 6.20286 42.1705 7.48111C42.1705 8.75935 41.3646 9.80598 39.9588 9.80598H39.9535Z" fill="white"/>
<path d="M61.4167 7.43778V7.01809C62.9911 6.77776 63.4544 6.2083 63.4544 5.20347C63.4544 4.0924 62.5065 3.31396 60.7795 3.31396H55.9337V11.6208H60.9161C62.842 11.6208 63.9123 10.8859 63.9123 9.49098C63.9088 8.29111 63.2769 7.64676 61.4167 7.43778ZM58.1933 4.99971H60.1458C60.8948 4.99971 61.138 5.31492 61.138 5.76423C61.138 6.21353 60.8948 6.5148 60.1458 6.5148H58.1933V4.99971ZM60.3943 9.94899H58.1933V8.17268H60.3943C61.3102 8.17268 61.5853 8.53144 61.5853 9.07129C61.5853 9.61115 61.3102 9.94203 60.3943 9.94203V9.94899Z" fill="white"/>
<path d="M36.542 16.9863C34.9977 16.9863 34.096 17.8571 33.7748 18.9507H33.2565V17.0943H30.972V28.4H33.2653V23.7224H33.7836C34.0907 24.8021 34.9924 25.537 36.5509 25.537C38.1856 25.537 39.989 23.8565 39.989 21.2634C39.989 18.6703 38.1768 16.9863 36.542 16.9863ZM35.477 23.583C34.0872 23.583 33.2618 22.5382 33.2618 21.2599C33.2618 19.9817 34.0872 18.935 35.477 18.935C36.8668 18.935 37.694 19.9799 37.694 21.2599C37.694 22.5399 36.8775 23.5865 35.4717 23.5865L35.477 23.583Z" fill="white"/>
<path d="M25.0792 16.9863C22.3741 16.9863 20.5707 18.6651 20.5707 21.2599C20.5707 23.8547 22.3741 25.5335 25.0792 25.5335C27.7843 25.5335 29.5877 23.853 29.5877 21.2599C29.5877 18.6669 27.7772 16.9863 25.0792 16.9863ZM25.0792 23.583C23.6876 23.583 22.864 22.5382 22.864 21.2599C22.864 19.9817 23.6876 18.935 25.0792 18.935C26.4708 18.935 27.2961 19.9799 27.2961 21.2599C27.2961 22.5399 26.485 23.5865 25.0792 23.5865V23.583Z" fill="white"/>
<path d="M200.485 27.1184H120.515C118.814 27.1184 117.129 26.7896 115.557 26.1507C113.985 25.5118 112.556 24.5754 111.353 23.3949C110.15 22.2144 109.195 20.813 108.544 19.2706C107.893 17.7282 107.558 16.0751 107.558 14.4056C107.558 12.7361 107.893 11.083 108.544 9.54068C109.195 7.99829 110.15 6.59684 111.353 5.41635C112.556 4.23586 113.985 3.29945 115.557 2.66057C117.129 2.02169 118.814 1.69287 120.515 1.69287H200.485C202.186 1.69287 203.871 2.02169 205.443 2.66057C207.015 3.29945 208.444 4.23586 209.647 5.41635C210.85 6.59684 211.805 7.99829 212.456 9.54068C213.107 11.083 213.442 12.7361 213.442 14.4056C213.442 16.0751 213.107 17.7282 212.456 19.2706C211.805 20.813 210.85 22.2144 209.647 23.3949C208.444 24.5754 207.015 25.5118 205.443 26.1507C203.871 26.7896 202.186 27.1184 200.485 27.1184ZM120.515 2.90145C118.963 2.88272 117.422 3.16651 115.983 3.73637C114.543 4.30624 113.233 5.15084 112.129 6.22121C111.024 7.29157 110.147 8.5664 109.549 9.97178C108.95 11.3771 108.642 12.8851 108.642 14.4082C108.642 15.9313 108.95 17.4393 109.549 18.8447C110.147 20.2501 111.024 21.5249 112.129 22.5953C113.233 23.6656 114.543 24.5102 115.983 25.0801C117.422 25.65 118.963 25.9338 120.515 25.915H200.485C202.037 25.9338 203.578 25.65 205.017 25.0801C206.457 24.5102 207.767 23.6656 208.871 22.5953C209.976 21.5249 210.853 20.2501 211.451 18.8447C212.05 17.4393 212.358 15.9313 212.358 14.4082C212.358 12.8851 212.05 11.3771 211.451 9.97178C210.853 8.5664 209.976 7.29157 208.871 6.22121C207.767 5.15084 206.457 4.30624 205.017 3.73637C203.578 3.16651 202.037 2.88272 200.485 2.90145H120.515Z" fill="#03FE33"/>
<path d="M126.517 9.99763C127.386 9.97855 128.24 10.2208 128.965 10.6918C129.689 11.1628 130.25 11.84 130.571 12.6325L128.544 13.3291C128.383 12.932 128.103 12.5921 127.741 12.3545C127.379 12.1169 126.952 11.9928 126.517 11.9986C125.258 11.9986 124.294 12.993 124.294 14.3078C124.294 15.6226 125.258 16.6327 126.517 16.6327C126.954 16.6349 127.381 16.5075 127.743 16.2673C128.104 16.027 128.384 15.6852 128.544 15.2865L130.571 15.9831C130.249 16.775 129.689 17.4515 128.964 17.9218C128.239 18.3921 127.385 18.6338 126.517 18.6145C123.95 18.6145 122.006 16.7529 122.006 14.3165C122.006 11.8802 123.95 9.99763 126.517 9.99763Z" fill="white"/>
<path d="M140.376 15.0711H133.871C134.011 15.5086 134.277 15.897 134.637 16.1896C134.997 16.4823 135.436 16.6667 135.9 16.7208C136.365 16.7748 136.835 16.6963 137.255 16.4944C137.675 16.2926 138.026 15.9762 138.267 15.5831L140.083 16.3859C139.346 17.685 137.941 18.5993 136.111 18.5993C133.544 18.5993 131.598 16.7377 131.598 14.3013C131.598 11.865 133.512 10.0034 136.036 10.0034C138.856 9.99819 140.834 12.3074 140.376 15.0711ZM133.904 13.4132H138.164C138.033 12.9584 137.751 12.5592 137.364 12.2779C136.977 11.9965 136.505 11.8489 136.024 11.8581C135.547 11.8598 135.084 12.012 134.702 12.292C134.32 12.5721 134.041 12.9652 133.904 13.4132Z" fill="white"/>
<path d="M148.743 16.3002C148.743 17.7108 147.192 18.5937 145.099 18.5937C143.562 18.5937 142.082 18.0956 141.161 17.2005L142.369 15.7429C143.138 16.4639 144.347 16.7355 145.099 16.7355C146.031 16.7355 146.455 16.3872 146.455 15.9658C146.455 15.3406 145.768 15.1804 144.773 15.1804H143.546V13.4128H144.773C145.768 13.4128 146.455 13.2526 146.455 12.6274C146.455 12.2112 146.031 11.8577 145.099 11.8577C144.347 11.8577 143.138 12.1311 142.369 12.8677L141.161 11.3927C142.075 10.4941 143.562 9.99951 145.099 9.99951C147.192 9.99951 148.743 10.8807 148.743 12.3087C148.743 13.223 148.033 14.0728 146.374 14.2975C148.024 14.5204 148.743 15.3702 148.743 16.3002Z" fill="white"/>
<path d="M154.578 9.99756C157.144 9.99756 159.09 11.8575 159.09 14.2956C159.09 16.7336 157.137 18.5935 154.578 18.5935C152.018 18.5935 150.075 16.7319 150.075 14.2956C150.075 11.8592 152.011 9.99756 154.578 9.99756ZM154.578 16.6152C155.852 16.6152 156.8 15.6208 156.8 14.2903C156.8 12.9599 155.852 11.9811 154.578 11.9811C153.303 11.9811 152.355 12.9808 152.355 14.2956C152.355 15.6104 153.319 16.6204 154.578 16.6204V16.6152Z" fill="white"/>
<path d="M160.607 18.4319V10.1582H162.815V13.3485H166.639V10.1582H168.845V18.4319H166.639V15.245H162.815V18.4319H160.607Z" fill="white"/>
<path d="M171.95 10.0205C172.337 10.0251 172.707 10.1792 172.979 10.4494C173.252 10.7196 173.405 11.0842 173.405 11.4642C173.405 11.8448 173.251 12.2098 172.977 12.4789C172.702 12.748 172.33 12.8992 171.943 12.8992C171.555 12.8992 171.183 12.748 170.908 12.4789C170.634 12.2098 170.48 11.8448 170.48 11.4642C170.479 11.2745 170.516 11.0865 170.59 10.911C170.663 10.7356 170.772 10.5761 170.908 10.4419C171.045 10.3077 171.207 10.2014 171.386 10.129C171.565 10.0567 171.756 10.0198 171.95 10.0205ZM171.95 15.7134C172.337 15.718 172.707 15.8721 172.979 16.1423C173.252 16.4125 173.405 16.777 173.405 17.1571C173.405 17.5377 173.251 17.9027 172.977 18.1718C172.702 18.4409 172.33 18.5921 171.943 18.5921C171.555 18.5921 171.183 18.4409 170.908 18.1718C170.634 17.9027 170.48 17.5377 170.48 17.1571C170.478 16.9668 170.515 16.7781 170.588 16.6018C170.661 16.4255 170.769 16.2653 170.906 16.1303C171.042 15.9953 171.205 15.8884 171.384 15.8156C171.564 15.7428 171.756 15.7057 171.95 15.7064V15.7134Z" fill="white"/>
<path d="M184.371 10.1582H188.375V18.4319H186.3V10.6388L184.011 18.4319H180.006V10.1582H182.083V18.0157L184.371 10.1582Z" fill="white"/>
<path d="M194.584 10.1582H198.59V18.4319H196.514V10.6388L194.226 18.4319H190.221V10.1582H192.296V18.0157L194.584 10.1582Z" fill="white"/>
</svg>
