<svg width="39" height="29" viewBox="0 0 39 29" fill="none" xmlns="http://www.w3.org/2000/svg">
<path fill-rule="evenodd" clip-rule="evenodd" d="M19.556 0C30.1106 0 38.67 6.49337 38.67 14.5C38.67 22.5066 30.1106 29 19.556 29C9.00142 29 0.442017 22.5066 0.442017 14.5C0.442017 6.49337 9.00142 0 19.556 0Z" fill="#F7E123"/>
<path fill-rule="evenodd" clip-rule="evenodd" d="M19.5568 0.611816V0.614109H19.556H19.5545V0.611816C14.4146 0.611951 9.76771 2.18776 6.4105 4.73457C3.10126 7.245 1.05391 10.6987 1.05377 14.4996H1.0562V14.5001V14.5009H1.05377C1.05404 18.3017 3.10126 21.755 6.41027 24.2655C9.76765 26.8126 14.4149 28.3883 19.5553 28.3884V28.386H19.556H19.5576V28.3884C24.6975 28.3882 29.3444 26.8124 32.7016 24.2656C36.0109 21.7552 38.0583 18.3015 38.0583 14.5006H38.056V14.5001V14.4993H38.0583C38.058 10.6986 36.0109 7.24514 32.7018 4.73472C29.3444 2.18776 24.6971 0.611816 19.5568 0.611816Z" fill="#353980"/>
<path fill-rule="evenodd" clip-rule="evenodd" d="M19.5566 4.38428V4.386H19.556H19.555V4.38428C15.9722 4.38444 12.7331 5.53216 10.393 7.38714C8.08626 9.21569 6.65911 11.7312 6.65906 14.4996H6.66072V14.5V14.5006H6.65906C6.65922 17.2688 8.08626 19.7842 10.3928 21.6127C12.7331 23.4678 15.9724 24.6156 19.5555 24.6156V24.6139H19.556H19.5571V24.6156C23.1399 24.6155 26.379 23.4678 28.7191 21.6128C31.0258 19.7842 32.453 17.2687 32.453 14.5003H32.4514V14.5V14.4993H32.453C32.4529 11.7311 31.0258 9.21575 28.7193 7.38732C26.379 5.53216 23.1396 4.38433 19.5566 4.38428Z" fill="#F7E123"/>
<path fill-rule="evenodd" clip-rule="evenodd" d="M19.7956 5.15381H19.5566H19.556H19.1567C17.5966 5.19296 16.1105 5.46092 14.7508 5.91601C14.4386 6.02048 14.1238 6.13923 13.8076 6.27124C13.4979 6.40051 13.1994 6.53836 12.9133 6.68359C12.1737 7.05901 11.4885 7.49668 10.8696 7.98732L10.8689 7.98632V7.98792C10.563 8.23032 10.2772 8.48178 10.0133 8.74099C9.74551 9.00389 9.49629 9.27699 9.26724 9.55884C8.15572 10.9267 7.48877 12.5317 7.42828 14.244V14.4996V14.5V14.5008V14.7536C7.45438 15.4982 7.59508 16.2232 7.83733 16.9171C7.9266 17.1729 8.02799 17.4212 8.1406 17.6612C8.73255 18.9228 9.67182 20.0638 10.8694 21.0129L10.8798 21.0233C11.1833 21.2632 11.5036 21.491 11.8388 21.705C12.1645 21.913 12.5211 22.1157 12.9067 22.3119C14.7584 23.2537 16.9577 23.8123 19.3259 23.8464H19.5555H19.556H19.5572H19.939C21.5051 23.8088 22.9967 23.5409 24.3612 23.0842C24.6734 22.9797 24.9881 22.861 25.3045 22.7289C25.6141 22.5997 25.9125 22.4619 26.1988 22.3166C26.9383 21.9412 27.6235 21.5034 28.2423 21.0129L28.2431 21.0139V21.0123C28.549 20.7699 28.8348 20.5184 29.0987 20.2592C29.3665 19.9963 29.6157 19.7232 29.8448 19.4414C30.9551 18.075 31.622 16.4718 31.6837 14.7615V14.5006V14.5V14.4995V14.2349C31.6566 13.4943 31.5157 12.7734 31.2747 12.0831C31.1854 11.8273 31.084 11.5789 30.9714 11.339C30.3795 10.0774 29.4402 8.93642 28.2427 7.98732L28.2307 7.97526L28.2298 7.97449C27.9269 7.73547 27.6073 7.5085 27.2732 7.29519C26.9474 7.08718 26.5909 6.88446 26.2053 6.68835C24.356 5.74776 22.1603 5.18913 19.7956 5.15381Z" fill="#BBBDBF"/>
<path fill-rule="evenodd" clip-rule="evenodd" d="M19.7514 5.64851L19.7516 7.24415C20.1049 7.23916 20.4575 7.22211 20.8064 7.19295C20.4876 6.59601 20.1335 6.07406 19.7514 5.64851ZM19.7516 7.62601L19.7518 10.7431C20.5313 10.7419 21.3051 10.7173 22.0638 10.6697C21.7996 9.52714 21.4352 8.46843 20.993 7.55892C20.5831 7.59753 20.1676 7.62003 19.7516 7.62601ZM19.7518 11.1258L19.7521 14.3352H22.5349C22.5305 14.1921 22.5247 14.0493 22.5171 13.9067C22.4651 12.9273 22.3381 11.9632 22.1469 11.047C21.3611 11.0977 20.5593 11.1243 19.7518 11.1258ZM19.7521 14.719L19.7523 18.0569C20.5906 18.0584 21.4228 18.0869 22.2374 18.1416C22.4581 17.0276 22.554 15.8694 22.5428 14.719H19.7521ZM19.7523 18.4394L19.7525 21.5579C20.1745 21.5641 20.596 21.5872 21.0117 21.627C21.5321 20.6755 21.908 19.6223 22.1573 18.5192C21.3687 18.4676 20.5636 18.4407 19.7523 18.4394ZM19.7525 21.94L19.7527 23.4015C20.1483 22.9693 20.4975 22.4965 20.8026 21.9912C20.4553 21.9621 20.1042 21.9452 19.7525 21.94ZM19.3704 23.4013L19.3703 21.9392C19.0176 21.9427 18.6656 21.9581 18.3171 21.9855C18.623 22.4929 18.9733 22.9676 19.3704 23.4013ZM19.3703 21.5568L19.3701 18.4407C18.5706 18.4474 17.767 18.4792 16.9691 18.5366C17.2179 19.6302 17.5914 20.6746 18.1071 21.619C18.5238 21.5814 18.9465 21.5606 19.3703 21.5568ZM19.3701 18.0579L19.3698 14.719H16.579C16.5679 15.8751 16.6649 17.039 16.8882 18.158C17.7125 18.0976 18.5434 18.0645 19.3701 18.0579ZM19.3698 14.3352L19.3696 11.1248C18.5731 11.1184 17.7727 11.0875 16.978 11.0314C16.7849 11.9521 16.6565 12.9214 16.6043 13.9062C16.5967 14.049 16.5911 14.1919 16.5868 14.3352H19.3698ZM19.3696 10.7419L19.3694 7.62693C18.9523 7.62302 18.5361 7.6026 18.1259 7.56599C17.6872 8.46943 17.3251 9.51985 17.0618 10.6529C17.829 10.7061 18.6012 10.7355 19.3696 10.7419ZM19.3694 7.24492L19.3692 5.65143C18.9866 6.07752 18.6322 6.60015 18.3133 7.19771C18.6626 7.22541 19.0158 7.2413 19.3694 7.24492ZM15.9454 21.9868C16.401 21.8683 16.8776 21.7743 17.3659 21.7049C17.4752 21.6894 17.5852 21.6751 17.6958 21.662C17.1933 20.707 16.8281 19.6594 16.5839 18.5663C16.1019 18.6062 15.6226 18.6557 15.1484 18.7147C14.4502 18.8017 13.7638 18.9095 13.0964 19.0388C13.1761 19.1689 13.2595 19.2976 13.3469 19.4248C14.0021 20.3785 14.8688 21.2496 15.9454 21.9868ZM17.42 22.0843C17.0662 22.1345 16.7204 22.1976 16.3858 22.2735C17.1369 22.7382 17.9806 23.1408 18.916 23.4663C18.5319 23.021 18.1928 22.5379 17.8962 22.0248C17.7363 22.042 17.5774 22.0618 17.42 22.0843ZM21.4218 21.6718C22.0216 21.7461 22.6054 21.8561 23.1578 22.0017C24.2458 21.2609 25.1204 20.3836 25.7806 19.4226C25.8748 19.2855 25.9647 19.1464 26.0503 19.0059C24.9542 18.7945 23.7714 18.6401 22.5429 18.5464C22.298 19.6504 21.9298 20.7084 21.4218 21.6718ZM22.7188 22.286C22.2382 22.1748 21.736 22.0903 21.2225 22.0324C20.9269 22.5429 20.5894 23.0235 20.2072 23.4666C21.1349 23.1439 21.9723 22.7455 22.7188 22.286ZM12.892 18.6885C13.6112 18.5454 14.3507 18.4275 15.1019 18.334C15.5653 18.2762 16.0338 18.2277 16.5049 18.1882C16.2825 17.057 16.1855 15.8837 16.1964 14.719H11.8266C11.8454 16.0828 12.2015 17.4404 12.892 18.6885ZM22.6213 18.1694C23.8949 18.2684 25.1203 18.4319 26.2527 18.656C26.9318 17.4169 27.2819 16.071 27.3007 14.719H22.9255C22.9364 15.8772 22.8409 17.044 22.6213 18.1694ZM11.8304 14.3352H16.2039C16.2083 14.1855 16.2142 14.0359 16.2221 13.8867C16.2743 12.9006 16.4023 11.9286 16.5945 11.0024C16.0932 10.9619 15.5947 10.9111 15.1019 10.8499C14.3523 10.7569 13.6144 10.6394 12.8965 10.497C12.2278 11.7132 11.8731 13.0233 11.8304 14.3352ZM22.9179 14.3352H27.2972C27.2549 13.0348 26.9063 11.7358 26.2486 10.5287C25.0905 10.757 23.8353 10.9222 22.5308 11.0202C22.7209 11.9412 22.8473 12.9071 22.8994 13.8872C22.9073 14.0363 22.9135 14.1856 22.9179 14.3352ZM13.0997 10.1463C13.766 10.2751 14.4513 10.3826 15.1484 10.4692C15.6531 10.5318 16.1636 10.5832 16.677 10.6242C16.9364 9.49436 17.2923 8.44134 17.7241 7.52461C17.4829 7.49652 17.2441 7.46284 17.0092 7.42315C16.6284 7.35882 16.2572 7.27922 15.9 7.18481C14.7953 7.97158 13.9164 8.89151 13.262 9.88943C13.2062 9.97456 13.1522 10.0602 13.0997 10.1463ZM22.4489 10.6433C23.71 10.5507 24.9243 10.3947 26.0475 10.179C25.9889 10.082 25.9283 9.98584 25.8656 9.89028C25.2067 8.88575 24.3205 7.96014 23.205 7.16985C22.6303 7.32413 22.0206 7.43949 21.394 7.51579C21.8297 8.43972 22.1883 9.50265 22.4489 10.6433ZM16.3255 6.89575C16.5691 6.95247 16.8184 7.00244 17.0722 7.04535C17.3449 7.09147 17.6227 7.12948 17.9038 7.15956C18.205 6.57375 18.5389 6.05234 18.899 5.61267C17.944 5.96998 17.0862 6.40273 16.3255 6.89575ZM21.2154 7.15304C21.7538 7.09278 22.2801 7.0029 22.7819 6.88377C22.0249 6.39543 21.1722 5.96645 20.2236 5.61198C20.5823 6.05018 20.915 6.56952 21.2154 7.15304ZM19.7956 5.15381H19.1567C18.1774 5.17792 16.6249 6.18834 15.8238 6.74039C15.726 6.71283 15.6292 6.68428 15.5339 6.65434C15.0534 6.50344 14.6062 6.32245 14.2056 6.11182L14.2054 6.11174C14.0732 6.16241 13.9405 6.21575 13.8076 6.27124L13.7552 6.2932C13.8654 6.35753 13.999 6.43581 14.0272 6.45063C14.4494 6.67269 14.9183 6.86259 15.42 7.02017L15.4305 7.02339C14.3987 7.79834 13.5676 8.68995 12.9368 9.65194C12.853 9.77967 12.7731 9.90847 12.6964 10.0386C12.5324 10.0043 12.3695 9.96927 12.2082 9.93243C11.2876 9.7221 10.4116 9.46849 9.6009 9.17037C9.50926 9.27169 9.41999 9.37432 9.33363 9.47816L9.4011 9.50427L9.41323 9.50879C10.2585 9.82281 11.1691 10.0879 12.1227 10.3058C12.2476 10.3343 12.3734 10.3619 12.4997 10.3888C11.8363 11.6324 11.485 12.9687 11.4435 14.3076L7.42828 14.3114V14.5V14.6952L11.4399 14.6914C11.4583 16.0823 11.8109 17.466 12.4954 18.7419C12.3705 18.7686 12.2461 18.7962 12.1227 18.8245C11.1711 19.0426 10.2623 19.3078 9.41853 19.6219C9.50719 19.7256 9.59845 19.8278 9.69224 19.9286C10.4775 19.6439 11.3222 19.4009 12.2082 19.1979C12.3684 19.1612 12.5302 19.1257 12.693 19.0916C12.7975 19.2678 12.9085 19.4417 13.0261 19.613C13.6545 20.5275 14.4689 21.3684 15.4676 22.0935C15.0658 22.2177 14.6845 22.3627 14.3309 22.5279C14.1745 22.601 14.0243 22.6778 13.8813 22.7577L13.8817 22.7585C14.0366 22.8221 14.1933 22.8834 14.352 22.9419C14.3986 22.9188 14.4454 22.8964 14.4929 22.8742C14.9109 22.6788 15.3718 22.5127 15.8624 22.3765C15.8719 22.3739 17.3277 23.3551 18.8852 23.8339C19.0314 23.84 19.1783 23.8442 19.326 23.8464H19.939C20.9638 23.8222 22.3789 22.9439 23.2223 22.3882C23.7646 22.5407 24.2717 22.7296 24.7275 22.9553C24.8829 22.898 25.039 22.8375 25.1955 22.7736L25.1975 22.7702C24.7285 22.5089 24.1981 22.2887 23.626 22.11C24.6364 21.3806 25.459 20.5331 26.0926 19.6108C26.2171 19.4295 26.3344 19.2453 26.4444 19.0585C27.5483 19.2901 28.5551 19.5812 29.4203 19.9285C29.5184 19.8228 29.6138 19.7158 29.7062 19.6073C28.8373 19.2726 27.668 18.9299 26.6398 18.7093C27.3133 17.4424 27.6603 16.0705 27.6786 14.6914H31.6837V14.5V14.3076H27.6753C27.6344 12.9801 27.2886 11.6552 26.636 10.4207C27.7787 10.1765 28.8175 9.86901 29.7033 9.50205L29.7762 9.47556C29.6897 9.37171 29.6006 9.26924 29.509 9.16823C28.6234 9.53052 27.5845 9.83287 26.4417 10.0715C26.3593 9.9305 26.2727 9.79096 26.182 9.65279C25.5463 8.6835 24.7076 7.78574 23.6648 7.00666C24.2222 6.82997 24.7392 6.61373 25.1975 6.35753L25.3357 6.28515C25.1825 6.22067 25.0275 6.1588 24.8706 6.09939C24.3927 6.351 23.8534 6.56008 23.2732 6.7265C22.38 6.11405 21.3502 5.58473 20.1837 5.16425C20.0548 5.15919 19.9255 5.15574 19.7956 5.15381Z" fill="#4782A5"/>
<path fill-rule="evenodd" clip-rule="evenodd" d="M25.9355 16.0751C25.9303 16.1067 25.9245 16.1381 25.9188 16.1697L25.9186 16.1696C25.8872 16.3409 25.8518 16.4989 25.8126 16.643H25.8111C25.5937 17.4404 25.2069 18.169 24.6511 18.8275L24.6515 18.8278L24.6508 18.8286L24.6464 18.8332C24.4984 19.008 24.3426 19.1724 24.1792 19.3257C24.0184 19.4765 23.8464 19.619 23.6635 19.7526C22.7417 20.4254 21.6297 20.7846 20.3178 20.7846H20.3162V20.783C19.721 20.7829 19.1614 20.6964 18.6419 20.5389C18.546 20.5098 18.4624 20.4824 18.3916 20.4573C17.9655 20.3055 17.5693 20.1059 17.2057 19.8677L17.2027 19.8662L17.202 19.8657L17.2021 19.8655C17.1477 19.8298 17.0815 19.7836 17.0047 19.7284C16.9274 19.6728 16.8628 19.6246 16.811 19.5838C16.7431 19.5303 16.6767 19.4754 16.6113 19.4187V20.387V20.7707H16.2276H15.4614L15.0776 20.7708V20.387V17.0503V16.6665H15.4614H16.2275H16.2276H16.6113V16.9605C17.0661 17.8354 17.7496 18.462 18.5285 18.8321C19.25 19.175 20.0529 19.2998 20.8318 19.2001C21.6089 19.1006 22.3634 18.7773 22.9896 18.224C23.5996 17.685 24.0905 16.9246 24.3665 15.9356C23.7051 15.9698 23.0241 16.0825 22.3303 16.1974C20.7559 16.4583 19.1167 16.7299 17.3203 16.1816L17.0467 16.0981L17.049 15.8128L17.0537 15.2358L17.0542 15.1666L17.0568 14.8528L17.0625 14.1457L17.0668 13.6193L17.5648 13.7844C19.1024 14.294 20.6443 14.0414 22.1861 13.789C22.8129 13.6863 23.4399 13.5839 24.0767 13.5287C23.5973 12.5008 22.9064 11.8151 22.1304 11.4245C21.6247 11.1701 21.0814 11.0389 20.5362 11.0186C19.9877 10.9981 19.4352 11.0897 18.9152 11.2801C17.9557 11.6315 17.1123 12.3195 16.6113 13.2614V13.5537H16.2276H16.2275H15.4614H15.0776V13.1699V9.83328V9.44957L15.4614 9.44949H16.2276L16.6113 9.44957V9.83328V10.7376C16.7846 10.5885 16.9739 10.4479 17.1824 10.3151L17.1839 10.3135L17.1854 10.3126L17.1857 10.3131C17.3134 10.232 17.444 10.1562 17.5773 10.0865C17.7211 10.0113 17.8579 9.94642 17.9873 9.89215H17.9888C18.7044 9.59212 19.4948 9.44189 20.3595 9.44189H20.3606V9.44343C21.2535 9.44358 22.0539 9.64154 22.7641 9.9937C22.8761 10.0492 22.9897 10.111 23.1039 10.1783C23.672 10.5128 24.1754 10.9478 24.6164 11.4578C24.943 11.8356 25.2136 12.2154 25.4271 12.6127C25.6012 12.9369 25.7377 13.2725 25.8354 13.6273C25.8704 13.6326 25.9019 13.6376 25.9295 13.6425C26.237 13.6966 26.5717 13.7821 26.8897 13.8805L27.1611 13.9644L27.161 14.2463V14.8339V14.9473V15.2258V15.3832V15.9213V16.459L26.6528 16.2826L26.6398 16.2781C26.5733 16.255 26.5085 16.2335 26.4458 16.2135C26.3795 16.1924 26.3195 16.174 26.2662 16.1587C26.1461 16.1241 26.036 16.0965 25.9355 16.0751Z" fill="#1A2128"/>
<path fill-rule="evenodd" clip-rule="evenodd" d="M10.0356 14.9442C10.4086 15.0382 10.6241 14.8261 10.6525 14.5461C10.661 14.5121 10.6657 14.478 10.6658 14.4448C10.666 14.4101 10.6617 14.3701 10.6538 14.3259C10.6096 14.0392 10.387 13.8652 10.0356 13.928V14.9442ZM10.2126 15.9962L10.2125 16.2828H10.4632L10.4633 16.6666L10.4636 17.1039L10.4638 17.4877H10.0813H9.74864H9.42418H9.36486H9.0404H8.27429H7.89226L7.89203 17.1039L7.8918 16.6666L7.89165 16.2828H8.15661L8.15116 13.9252H7.87891L7.88466 13.5369L7.89203 13.0419L7.89771 12.6626H8.27429H9.0404H9.36486H9.42418H9.57118H9.74864V12.6645C10.1811 12.6736 10.6137 12.7221 10.9728 12.8975C11.4399 13.1256 11.7567 13.5321 11.763 14.2552C11.7685 14.8956 11.5887 15.341 11.2355 15.633C10.9742 15.849 10.6323 15.9634 10.2126 15.9962Z" fill="#F7E123"/>
<path fill-rule="evenodd" clip-rule="evenodd" d="M14.5327 14.4272H14.0081H13.6293L13.6259 14.0464L13.6251 13.9576L13.561 13.9585V16.2605H13.839V16.6443V17.1039V17.4877H13.4552H13.0973H12.7728H12.7135H12.389H12.3282H11.9445V17.4862H11.6509H11.2672V17.1039V16.6443V16.2605H11.5431V13.9475H11.2672V13.5637V13.0464V12.6641H11.6509H11.9445V12.6626H12.3282H12.7135H13.0973V12.6641H14.5327H14.9165V13.0464V14.0434V14.4272H14.5327Z" fill="#F7E123"/>
<path fill-rule="evenodd" clip-rule="evenodd" d="M25.2289 15.3378C25.2237 15.3694 25.2179 15.4008 25.2122 15.4324L25.2119 15.4323C25.1806 15.6036 25.1452 15.7616 25.1059 15.9057H25.1045C24.8871 16.7031 24.5003 17.4317 23.9445 18.0902L23.9449 18.0905L23.9442 18.0913L23.9398 18.0959C23.7918 18.2707 23.636 18.4351 23.4726 18.5884C23.3118 18.7392 23.1398 18.8817 22.9569 19.0153C22.0351 19.6881 20.9231 20.0473 19.6112 20.0473H19.6096V20.0457C19.0144 20.0456 18.4548 19.9591 17.9353 19.8016C17.8394 19.7725 17.7558 19.7451 17.685 19.72C17.2589 19.5682 16.8627 19.3686 16.4991 19.1304L16.4961 19.1288L16.4954 19.1284L16.4955 19.1282C16.4411 19.0925 16.3749 19.0463 16.298 18.9911C16.2207 18.9355 16.1562 18.8873 16.1044 18.8465C16.0364 18.793 15.9701 18.7381 15.9047 18.6814V19.6496V20.0334H15.5209H14.7548L14.371 20.0335V19.6496V16.313V15.9292H14.7548H15.5209H15.5209H15.9047V16.2232C16.3594 17.0981 17.043 17.7246 17.8219 18.0948C18.5433 18.4377 19.3463 18.5625 20.1252 18.4628C20.9023 18.3633 21.6568 18.04 22.283 17.4867C22.893 16.9477 23.3839 16.1873 23.6599 15.1983C22.9985 15.2325 22.3175 15.3452 21.6237 15.4601C20.0493 15.721 18.4101 15.9926 16.6137 15.4443L16.3401 15.3608L16.3424 15.0755L16.3471 14.4985L16.3476 14.4293L16.3502 14.1155L16.3559 13.4084L16.3602 12.882L16.8581 13.0471C18.3958 13.5567 19.9377 13.3041 21.4795 13.0517C22.1063 12.949 22.7333 12.8466 23.3701 12.7914C22.8906 11.7635 22.1998 11.0778 21.4237 10.6872C20.9181 10.4328 20.3748 10.3016 19.8296 10.2813C19.2811 10.2608 18.7286 10.3523 18.2086 10.5428C17.2491 10.8942 16.4057 11.5822 15.9047 12.5241V12.8164H15.5209H15.5209H14.7548H14.371V12.4326V9.09598V8.71226L14.7548 8.71218H15.5209L15.9047 8.71226V9.09598V10.0003C16.078 9.85119 16.2673 9.71064 16.4758 9.57778L16.4773 9.57624L16.4788 9.57532L16.4791 9.57578C16.6068 9.49465 16.7374 9.41889 16.8706 9.34919C17.0145 9.27398 17.1513 9.20911 17.2807 9.15485H17.2822C17.9978 8.85481 18.7882 8.70459 19.6529 8.70459H19.654V8.70613C20.5469 8.70628 21.3473 8.90424 22.0575 9.25639C22.1695 9.31189 22.283 9.37368 22.3973 9.441C22.9653 9.77551 23.4688 10.2105 23.9098 10.7205C24.2364 11.0983 24.507 11.4781 24.7205 11.8754C24.8946 12.1996 25.0311 12.5352 25.1288 12.8899C25.1638 12.8953 25.1953 12.9003 25.2228 12.9052C25.5304 12.9593 25.8651 13.0448 26.1831 13.1432L26.4545 13.2271L26.4544 13.509V14.0966V14.21V14.4885V14.6459V15.184V15.7217L25.9462 15.5453L25.9332 15.5408C25.8667 15.5177 25.8019 15.4962 25.7392 15.4762C25.6729 15.4551 25.6129 15.4368 25.5596 15.4214C25.4395 15.3868 25.3294 15.3592 25.2289 15.3378Z" fill="#F6E125"/>
<path fill-rule="evenodd" clip-rule="evenodd" d="M30.8508 12.6436L31.233 12.6457V13.0258V13.5599V13.9437H30.9597L30.9869 15.7494V15.7509L30.987 15.7677V15.7737C30.9865 15.8296 30.9816 15.8841 30.9729 15.9355C30.9652 15.9807 30.9525 16.0329 30.9358 16.091C30.7196 16.8384 30.1919 17.3763 29.4033 17.5269L27.8475 17.5312L27.4659 17.5322L27.4652 17.1489L27.4639 16.3553L27.4633 15.9616L27.8567 15.9731L28.3316 15.987L28.6865 15.9975L28.6992 16.2641L28.9567 16.2663L28.9549 16.0237L28.8533 16.0156L28.8234 16.0111C28.3365 15.9338 28.0108 15.7413 27.7887 15.4753C27.5715 15.2152 27.4689 14.9007 27.4164 14.5627L27.412 14.5337V14.5042L27.4133 13.9437H27.1663V13.5599V13.0258V12.6396L27.553 12.6436L28.5176 12.6535C28.6033 12.6544 28.6891 12.6546 28.7749 12.6548L28.7572 13.9094L28.5811 13.9061L28.5782 14.5564C28.5771 14.8373 28.909 15.0672 29.1085 15.0694L29.1018 13.916L28.8046 13.9104L28.8222 12.6551C29.4978 12.6561 30.1752 12.6399 30.8508 12.6436Z" fill="#F7E123"/>
<path fill-rule="evenodd" clip-rule="evenodd" d="M12.2689 17.1039H11.6509V16.6443H11.9269V13.5637H11.6509V13.0464H12.2689V17.1039ZM12.3282 17.1039H12.7135V13.0464H12.3282V17.1039ZM14.5327 14.0434H14.0082L14.004 13.5706L13.1773 13.5809V16.6443H13.4552V17.1039H12.7728V13.0464H14.5327V14.0434Z" fill="#1A2128"/>
<path fill-rule="evenodd" clip-rule="evenodd" d="M24.9003 14.9028C24.7922 16.0064 24.3747 16.9885 23.6481 17.8476C22.6556 19.0208 21.3186 19.6635 19.6112 19.6635C18.4978 19.6635 17.5206 19.3413 16.7089 18.8095C16.256 18.5127 15.86 18.1538 15.521 17.7336V19.6497H14.7548V16.313H15.5209H15.521V16.3132C17.3971 20.0991 23.1664 19.7743 24.1465 14.806C21.822 14.7742 19.4161 15.9001 16.7247 15.0785L16.7293 14.5015C20.0745 15.1743 22.0361 14.2811 24.0611 14.2171V13.7904C22.1183 13.8463 20.063 14.6812 16.7324 14.1185L16.7382 13.4114C19.1758 14.2192 21.5319 13.2297 23.9287 13.1389C22.2758 8.62615 17.1279 9.23952 15.521 12.4325V12.4326H15.5209H14.7548V9.09598H15.521V10.9745C15.8311 10.5548 16.2033 10.2046 16.6812 9.90009C17.5302 9.35903 18.5208 9.08838 19.6529 9.08838C21.3141 9.08838 22.6288 9.82394 23.6204 10.9709C24.2363 11.6832 24.6389 12.3993 24.8193 13.236C25.1973 13.2725 25.6509 13.3793 26.0706 13.509V14.0966C25.6778 13.9523 25.2962 13.867 24.9167 13.8236V14.2455C25.2899 14.2841 25.6717 14.3603 26.0706 14.4885V15.184C25.5694 15.0094 25.1752 14.9204 24.9003 14.9028Z" fill="#1A2128"/>
<path fill-rule="evenodd" clip-rule="evenodd" d="M30.2346 13.0226L30.8492 13.026V13.5601H30.5717L30.6046 15.7541C30.6106 15.9689 30.457 16.3314 30.2346 16.6325V13.0226ZM29.787 13.0202L30.1753 13.0223V16.7092C30.0577 16.8548 29.9242 16.9801 29.787 17.0584V13.0202ZM29.3641 15.1222L29.3535 13.5533L29.0475 13.5502V13.0161L29.7277 13.0199V17.0893C29.6473 17.1268 29.5664 17.147 29.4866 17.1446L27.8475 17.1491L27.8462 16.3555L28.3211 16.3695L28.3341 16.6436L29.3419 16.652L29.3343 15.6697L28.8833 15.6335C28.1145 15.5115 27.8797 15.0549 27.7942 14.5044L27.7964 13.5601H27.55V13.026L28.5146 13.0359V13.57H28.3405L28.3363 14.5586C28.377 14.8233 28.5542 15.0109 28.8678 15.1215L29.3641 15.1222Z" fill="#1A2128"/>
<path fill-rule="evenodd" clip-rule="evenodd" d="M9.36485 17.1039H8.27428L8.27405 16.6666H8.5397L8.53257 13.5415H8.26691L8.27428 13.0464H9.36485V17.1039ZM9.83813 15.1334C10.4778 15.2169 10.8987 14.8817 10.9004 14.3668C10.9024 13.7646 10.4684 13.5318 9.83813 13.5848V15.1334ZM9.83037 15.6222L9.83015 16.6666H10.0811L10.0813 17.1039H9.42418V13.0464H9.57117C10.4576 13.0464 11.3713 13.1647 11.3807 14.2582C11.3896 15.2884 10.8497 15.6518 9.83037 15.6222Z" fill="#1A2128"/>
<path fill-rule="evenodd" clip-rule="evenodd" d="M24.3667 24.9947L24.6848 26.491L25.1234 26.3977L25.1883 26.7026L24.0148 26.952L23.95 26.6472L24.3875 26.5541L24.0694 25.0578L24.3667 24.9947ZM26.0461 24.5461L26.5227 26.3248L25.4401 26.6149L25.3595 26.3138L26.1485 26.1024L26.0428 25.7082L25.3097 25.9046L25.2295 25.6052L25.9626 25.4088L25.8328 24.9247L25.0174 25.1431L24.9371 24.8433L26.0461 24.5461ZM26.9152 24.1943L27.4634 25.6225L27.8821 25.4617L27.9938 25.7527L26.8738 26.1826L26.7621 25.8917L27.1796 25.7314L26.6314 24.3032L26.9152 24.1943ZM28.6255 23.4139L29.4037 25.0827L29.1407 25.2054L28.6221 24.0933L28.5874 25.4634L28.3107 25.5924L27.5325 23.9235L27.7955 23.8009L28.303 24.8892L28.3477 23.5434L28.6255 23.4139ZM29.4761 23.7033L29.1662 23.7686C29.0926 23.5704 29.0747 23.4026 29.1128 23.2644C29.1511 23.1266 29.2359 23.0147 29.3672 22.9294C29.5322 22.8223 29.7072 22.7991 29.8922 22.8595C30.1057 22.9294 30.2933 23.0892 30.4553 23.3383C30.6263 23.6019 30.7009 23.8465 30.6785 24.0727C30.6591 24.2688 30.5626 24.4234 30.3884 24.5366C30.2467 24.6286 30.0964 24.6572 29.9381 24.6226C29.8252 24.5976 29.709 24.528 29.5892 24.413L29.7942 24.1751C29.8647 24.2484 29.9384 24.2916 30.0154 24.3048C30.0926 24.3181 30.1638 24.3036 30.229 24.2613C30.3224 24.2006 30.3723 24.1104 30.3783 23.9905C30.3845 23.871 30.3266 23.7173 30.2047 23.5297C30.0785 23.3351 29.9598 23.2154 29.8489 23.1708C29.738 23.1258 29.6365 23.1333 29.5446 23.1931C29.4769 23.237 29.4357 23.3011 29.4206 23.385C29.4055 23.4694 29.4238 23.5757 29.4761 23.7033ZM31.7164 23.2342L31.4093 22.8117L31.2731 22.9107C31.1815 22.9773 31.1239 23.0286 31.1003 23.0654C31.077 23.1019 31.0669 23.1448 31.0705 23.1936C31.0737 23.2426 31.093 23.2911 31.1286 23.34C31.1644 23.3893 31.2056 23.4234 31.2516 23.4415C31.2982 23.4595 31.3413 23.4627 31.3818 23.4513C31.422 23.4396 31.4933 23.3963 31.5963 23.3214L31.7164 23.2342ZM31.0631 21.8179L32.1455 23.3076L31.7489 23.5957C31.6012 23.7031 31.4995 23.7659 31.4437 23.7847C31.3547 23.8144 31.2592 23.8085 31.1576 23.7679C31.0557 23.7269 30.9618 23.6472 30.8755 23.5286C30.7971 23.4208 30.7522 23.3157 30.7398 23.2134C30.7274 23.111 30.7415 23.023 30.7811 22.9492C30.8203 22.8756 30.9146 22.7843 31.0638 22.6759L31.2255 22.5585L30.8171 21.9966L31.0631 21.8179ZM32.1093 20.8538L33.3414 22.2222L32.5085 22.9721L32.3002 22.7405L32.907 22.1939L32.6339 21.8906L32.07 22.3984L31.8625 22.1681L32.4265 21.6603L32.0911 21.2878L31.4638 21.8527L31.2561 21.622L32.1093 20.8538ZM33.5221 20.447L33.1343 20.1441L32.96 20.367C32.8837 20.4647 32.8401 20.5312 32.8285 20.5667C32.8169 20.6024 32.8191 20.6415 32.8343 20.684C32.8498 20.726 32.8803 20.765 32.9267 20.8012C32.9743 20.8384 33.021 20.8587 33.0674 20.8627C33.1139 20.8665 33.1561 20.8564 33.1933 20.8322C33.2311 20.8078 33.2902 20.744 33.3703 20.6413L33.5221 20.447ZM34.0992 20.8979L33.7637 20.6358L33.6399 20.7943C33.5657 20.8892 33.5216 20.9493 33.5072 20.9746C33.4817 21.0205 33.4741 21.0657 33.484 21.1109C33.4939 21.1558 33.5232 21.1971 33.5715 21.2349C33.6144 21.2684 33.6564 21.2864 33.6978 21.2884C33.7392 21.2903 33.7735 21.2806 33.8011 21.2592C33.8284 21.2375 33.8918 21.1635 33.9908 21.0368L34.0992 20.8979ZM34.5279 20.8471L34.1557 21.3234C34.0543 21.4532 33.9711 21.5355 33.9058 21.5695C33.8411 21.6037 33.7642 21.6157 33.6756 21.6051C33.5877 21.5945 33.5051 21.5595 33.4295 21.5003C33.3595 21.4457 33.3085 21.3808 33.2763 21.3056C33.2442 21.2304 33.2337 21.1575 33.2451 21.087C33.165 21.1382 33.0791 21.1597 32.9871 21.152C32.8953 21.1451 32.8057 21.1071 32.7185 21.039C32.6132 20.9566 32.5437 20.8611 32.5105 20.7536C32.4772 20.6459 32.4793 20.5507 32.5161 20.468C32.5421 20.4104 32.6233 20.2938 32.7603 20.1185L33.0768 19.7134L34.5279 20.8471ZM33.9576 18.4588L35.466 19.515L35.2994 19.7528L34.2943 19.0489L34.9493 20.2528L34.7742 20.5029L33.2659 19.4467L33.4323 19.209L34.416 19.8978L33.7817 18.7099L33.9576 18.4588ZM34.5237 17.0349L36.231 17.7247L36.1172 18.0065L35.4455 17.7351L35.2214 18.2897L35.8931 18.5611L35.7789 18.8441L34.0714 18.1543L34.1858 17.8713L34.9324 18.1729L35.1564 17.6184L34.4099 17.3167L34.5237 17.0349ZM35.1408 16.2241L36.5439 15.9312L36.4786 16.2667L35.4733 16.428L36.3538 16.9089L36.2936 17.2187L35.017 16.452C34.8615 16.3581 34.7553 16.2754 34.6978 16.2043C34.6408 16.1339 34.6203 16.0578 34.6359 15.9774C34.6509 15.9 34.6719 15.8325 34.6985 15.7747L34.9686 15.8272C34.9557 15.8758 34.9466 15.913 34.9417 15.9387C34.9278 16.0106 34.9329 16.0645 34.9576 16.0994C34.9827 16.1348 35.0436 16.1764 35.1408 16.2241ZM37.1319 14.0044L37.1589 14.1429C37.0425 14.1576 36.9472 14.1421 36.8742 14.0964C36.8006 14.0505 36.7559 13.9844 36.7391 13.8982C36.7223 13.8115 36.7389 13.7336 36.79 13.6634C36.8406 13.5937 36.923 13.5432 37.0363 13.5128L37.0631 13.6509C36.947 13.6845 36.8991 13.7552 36.92 13.863C36.9409 13.9704 37.0117 14.0178 37.1319 14.0044ZM34.6942 13.6734L36.5017 13.322L36.557 13.6069L35.3526 13.841L36.6735 14.2062L36.7318 14.5059L34.9243 14.8572L34.8688 14.5723L36.0476 14.3432L34.7526 13.9743L34.6942 13.6734ZM34.3859 12.1813L36.1934 11.83L36.2488 12.1149L35.0443 12.349L36.3654 12.7142L36.4236 13.0138L34.616 13.3652L34.5605 13.0803L35.7395 12.8512L34.4444 12.4823L34.3859 12.1813ZM33.9581 10.9653L35.627 10.1872L35.7555 10.4627L35.0452 10.7939C35.0812 10.8518 35.1221 10.8847 35.1665 10.8925C35.2112 10.9004 35.3074 10.8935 35.4543 10.8718C35.6014 10.8504 35.7144 10.847 35.7924 10.8613C35.8704 10.8755 35.9275 10.9033 35.9621 10.9444C35.9969 10.9854 36.0436 11.062 36.1024 11.1741L35.8522 11.2908L35.834 11.252C35.7977 11.1739 35.7547 11.1295 35.7056 11.1184C35.657 11.1075 35.5737 11.1117 35.4572 11.1306C35.3403 11.1496 35.2597 11.1565 35.2161 11.1512C35.1724 11.1466 35.1228 11.1285 35.0677 11.098C35.0709 11.1703 35.0536 11.2389 35.0149 11.3032C34.977 11.3678 34.9044 11.4579 34.7974 11.5731L34.428 11.9729L34.2767 11.6484L34.6309 11.2822C34.722 11.1892 34.7817 11.1173 34.8116 11.0669C34.8412 11.0167 34.8427 10.9611 34.8164 10.9006L34.0866 11.2408L33.9581 10.9653ZM34.2506 10.1105L34.3212 10.4192C34.1243 10.4961 33.9569 10.5169 33.818 10.4813C33.6796 10.4455 33.5662 10.3626 33.4787 10.2329C33.3687 10.0697 33.3425 9.89512 33.3995 9.70914C33.4658 9.49436 33.6222 9.30401 33.8686 9.13783C34.1291 8.96214 34.3723 8.88338 34.5988 8.9018C34.7952 8.91777 34.9515 9.01141 35.0677 9.1838C35.1623 9.32388 35.1934 9.47348 35.1616 9.63252C35.1387 9.74575 35.071 9.86327 34.9581 9.98493L34.7167 9.7842C34.7887 9.71236 34.8307 9.63797 34.8427 9.56068C34.8545 9.48323 34.8388 9.41231 34.7953 9.34798C34.733 9.25558 34.642 9.20722 34.522 9.20337C34.4024 9.19923 34.2497 9.2598 34.0643 9.38491C33.8718 9.51463 33.7542 9.63537 33.7116 9.74698C33.6686 9.85874 33.6777 9.95998 33.7392 10.0509C33.7843 10.1178 33.849 10.1579 33.9333 10.1714C34.0179 10.1851 34.1239 10.1649 34.2506 10.1105ZM32.2461 8.59638L33.6359 7.3883L34.3712 8.23408L34.136 8.43857L33.6001 7.82213L33.2921 8.08993L33.79 8.66269L33.556 8.86604L33.0582 8.29327L32.6798 8.6221L33.2337 9.25926L32.9994 9.4629L32.2461 8.59638ZM31.8958 6.69341L32.3277 6.19672L32.5571 6.39614L32.2365 6.76495C32.1695 6.84202 32.123 6.90212 32.0972 6.94557C32.0706 6.98901 32.0619 7.03706 32.0698 7.08941C32.078 7.14198 32.1147 7.19655 32.1797 7.25305C32.2771 7.33779 32.3768 7.38009 32.4788 7.38017L32.9997 6.781L33.2292 6.98041L32.0211 8.3701L31.7917 8.17069L32.278 7.61121C32.1447 7.58227 32.0325 7.52777 31.9414 7.4487C31.8153 7.33902 31.7479 7.21797 31.7394 7.08573C31.7309 6.95385 31.7831 6.82313 31.8958 6.69341ZM29.9374 6.69488L31.0457 5.22427L31.2774 5.3989L30.539 6.37886L31.765 5.76634L32.0089 5.9501L30.9006 7.42069L30.6689 7.24606L31.3915 6.28698L30.1823 6.87939L29.9374 6.69488ZM28.4166 5.77869L29.3649 4.20026L29.7556 4.43506L29.3434 5.6529L30.223 4.71592L30.6148 4.95133L29.6664 6.52969L29.4242 6.38416L30.1707 5.14168L29.1669 6.22957L28.9149 6.07812L29.4064 4.68237L28.6598 5.92484L28.4166 5.77869ZM27.5335 4.39499C27.444 4.58697 27.4135 4.74777 27.4414 4.87756C27.4697 5.00767 27.5373 5.09786 27.6454 5.14829C27.7538 5.19886 27.8658 5.19288 27.9817 5.13102C28.0976 5.06916 28.2011 4.93958 28.2932 4.74216C28.3834 4.54859 28.4155 4.38955 28.3892 4.26419C28.3632 4.13946 28.2938 4.05081 28.1815 3.99847C28.0692 3.94611 27.9558 3.94996 27.842 4.01044C27.7276 4.07116 27.6248 4.19918 27.5335 4.39499ZM27.2438 4.27363C27.3366 4.07469 27.442 3.9247 27.561 3.82369C27.6797 3.72237 27.8013 3.66226 27.9255 3.64354C28.0497 3.62473 28.1795 3.64699 28.3146 3.71001C28.5105 3.80136 28.635 3.95019 28.6888 4.15742C28.7422 4.36445 28.7047 4.60622 28.5759 4.88255C28.4458 5.1615 28.2786 5.3494 28.0749 5.44556C27.8955 5.53123 27.7078 5.52794 27.5111 5.4362C27.3129 5.34379 27.1888 5.20217 27.1382 5.0115C27.0808 4.79367 27.1161 4.54759 27.2438 4.27363ZM25.4758 4.62005L26.0754 2.87896L26.3628 2.9779L26.1269 3.66296L26.6924 3.85769L26.9283 3.17263L27.2169 3.27203L26.6174 5.01312L26.3288 4.91372L26.5909 4.15235L26.0254 3.95763L25.7633 4.71898L25.4758 4.62005ZM24.3713 3.37304C24.3164 3.5776 24.3143 3.74133 24.3643 3.86429C24.4147 3.98749 24.4971 4.06455 24.6122 4.0954C24.7278 4.12642 24.8371 4.10109 24.9405 4.02003C25.0438 3.93898 25.1233 3.79344 25.1797 3.58298C25.235 3.37672 25.2389 3.21446 25.1913 3.09565C25.1439 2.97728 25.0602 2.90206 24.9405 2.87005C24.8209 2.83797 24.7099 2.86145 24.6082 2.94075C24.5061 3.02034 24.4272 3.16435 24.3713 3.37304ZM24.0649 3.3038C24.1217 3.0918 24.1995 2.9257 24.2991 2.80558C24.3984 2.68522 24.5078 2.60493 24.6268 2.56487C24.7459 2.52487 24.8775 2.52418 25.0215 2.56279C25.2303 2.61874 25.3788 2.7437 25.4678 2.93852C25.5564 3.1331 25.5613 3.37765 25.4824 3.67217C25.4028 3.96944 25.2708 4.18352 25.0869 4.31363C24.9249 4.42915 24.7396 4.45847 24.53 4.40229C24.3188 4.34572 24.172 4.22781 24.089 4.04881C23.9946 3.84425 23.9867 3.59579 24.0649 3.3038ZM22.6331 3.95709L22.9844 2.14946L23.2829 2.20749L23.1333 2.97674C23.2014 2.98173 23.2521 2.96792 23.2843 2.93668C23.3172 2.90505 23.368 2.82323 23.4368 2.69166C23.5061 2.56003 23.5696 2.46669 23.6271 2.41188C23.6845 2.35716 23.7404 2.32738 23.7941 2.32339C23.8477 2.3194 23.9371 2.32676 24.0623 2.34503L24.0097 2.61606L23.9676 2.60785C23.883 2.59142 23.8219 2.60009 23.784 2.63334C23.7466 2.66627 23.7012 2.73596 23.6479 2.84134C23.5946 2.94719 23.5528 3.01643 23.5229 3.0486C23.4934 3.08122 23.4497 3.11077 23.3926 3.13724C23.4529 3.17739 23.4982 3.23165 23.5276 3.30066C23.5575 3.36936 23.5878 3.48097 23.6181 3.63533L23.7245 4.16917L23.3729 4.10085L23.2849 3.59894C23.2631 3.47068 23.24 3.38011 23.2169 3.3263C23.1937 3.2728 23.1496 3.23895 23.0851 3.22467L22.9315 4.01504L22.6331 3.95709ZM21.6429 3.10493L21.6647 2.79391L22.1369 2.82699C22.1326 2.6724 22.1007 2.55113 22.0415 2.46355C21.9823 2.37566 21.9026 2.32838 21.8035 2.32147C21.6413 2.3101 21.5264 2.40437 21.4587 2.60462L21.1651 2.50116C21.2114 2.32946 21.2913 2.20134 21.4052 2.11608C21.5191 2.03085 21.6557 1.9939 21.8152 2.00509C22.0274 2.01993 22.1908 2.1177 22.3053 2.29936C22.4197 2.48058 22.4667 2.719 22.4461 3.01367C22.4262 3.29852 22.3483 3.5221 22.2123 3.68407C22.0762 3.84648 21.9052 3.9201 21.6987 3.90567C21.3557 3.88164 21.1577 3.6701 21.1061 3.27111L21.4188 3.17601C21.4249 3.30328 21.4558 3.40252 21.5118 3.4739C21.5679 3.54528 21.6408 3.58443 21.7311 3.59073C21.9307 3.6047 22.0587 3.45371 22.1151 3.13794L21.6429 3.10493ZM19.0243 1.42048L19.1648 1.4082C19.1673 1.52553 19.1419 1.61858 19.0889 1.68642C19.0355 1.75479 18.9651 1.79242 18.8775 1.79997C18.7896 1.80779 18.7139 1.78298 18.6494 1.72485C18.5854 1.66727 18.5437 1.58001 18.5254 1.46417L18.6655 1.4519C18.6867 1.57098 18.7522 1.626 18.8615 1.61643C18.9705 1.60685 19.025 1.54144 19.0243 1.42048ZM18.4402 3.81034L18.2797 1.97596L18.5688 1.95061L18.6757 3.17302L19.177 1.89734L19.4812 1.87077L19.6417 3.70517L19.3525 3.7305L19.2478 2.53416L18.7456 3.78362L18.4402 3.81034ZM17.8638 3.83321L17.7033 1.99875L18.0061 1.97232L18.1666 3.80672L17.8638 3.83321ZM16.6005 3.14323L16.6428 3.62712L16.9631 3.59909C17.0465 3.5918 17.1062 3.58106 17.1424 3.56663C17.1786 3.55227 17.2087 3.52249 17.2332 3.47858C17.2573 3.43437 17.2672 3.38525 17.2626 3.33106C17.2483 3.16834 17.1387 3.09617 16.9332 3.11414L16.6005 3.14323ZM16.3672 3.96416L16.2067 2.1297L16.5095 2.10327L16.5734 2.83275L17.0038 2.79506C17.164 2.78102 17.2954 2.82161 17.3983 2.91634C17.5013 3.01105 17.5602 3.14277 17.575 3.31148C17.587 3.44895 17.5599 3.57699 17.4937 3.69596C17.4275 3.81502 17.2974 3.88278 17.1031 3.89975L16.3672 3.96416ZM14.8373 4.20587L14.486 2.3983L14.7844 2.34027L14.9226 3.05151L15.5097 2.93736L15.3715 2.22621L15.6712 2.16795L16.0225 3.97551L15.7228 4.03377L15.5692 3.2434L14.9821 3.35746L15.1357 4.1479L14.8373 4.20587ZM13.3632 4.57867L12.8557 2.80857L13.1478 2.72482L13.3476 3.42125L13.9225 3.25637L13.7227 2.55996L14.0162 2.47583L14.5238 4.24585L14.2303 4.32998L14.0084 3.55603L13.4334 3.72091L13.6554 4.49486L13.3632 4.57867ZM12.055 5.02885L11.3951 3.30979L12.4414 2.90813L12.5531 3.19911L11.7906 3.49178L11.9369 3.87288L12.6454 3.60094L12.7564 3.89024L12.048 4.16227L12.2276 4.63018L13.0157 4.3276L13.1269 4.61743L12.055 5.02885ZM10.5985 4.75859L10.7908 5.21161L11.0513 5.10101C11.1653 5.05265 11.2358 5.01573 11.2632 4.99017C11.2905 4.96453 11.3077 4.92929 11.3149 4.88486C11.3217 4.84049 11.3139 4.7916 11.291 4.73756C11.2674 4.68184 11.2363 4.64153 11.1978 4.61552C11.1588 4.58957 11.1171 4.57798 11.0728 4.58105C11.028 4.5842 10.9454 4.61129 10.8255 4.66226L10.5985 4.75859ZM10.3123 4.08443L10.4787 4.47635L10.6638 4.39783C10.7748 4.35071 10.8425 4.31962 10.8674 4.30442C10.912 4.27663 10.9404 4.24078 10.9538 4.19643C10.9667 4.15229 10.9612 4.10201 10.9373 4.04559C10.916 3.99547 10.8881 3.95932 10.8527 3.93752C10.8174 3.9158 10.7827 3.90767 10.7482 3.91295C10.7139 3.91871 10.6226 3.95279 10.4746 4.01558L10.3123 4.08443ZM9.91281 3.9211L10.4693 3.6849C10.6208 3.62051 10.7336 3.58896 10.8071 3.5908C10.8803 3.59234 10.9533 3.61913 11.0257 3.67132C11.0976 3.72322 11.1527 3.79391 11.1903 3.88232C11.2249 3.964 11.2381 4.04552 11.2297 4.1268C11.2214 4.20816 11.1953 4.27702 11.1511 4.33312C11.2459 4.32721 11.3315 4.35002 11.4082 4.40136C11.4852 4.45203 11.5451 4.52863 11.5883 4.6304C11.6406 4.7536 11.655 4.87089 11.6319 4.98088C11.6088 5.09118 11.5609 5.17354 11.4885 5.22797C11.4379 5.26573 11.3103 5.32829 11.1055 5.41525L10.6323 5.61612L9.91281 3.9211ZM9.81426 6.05402L9.07262 4.71607L8.68032 4.93352L8.52926 4.66095L9.57845 4.07937L9.72959 4.35193L9.33844 4.56869L10.0801 5.90665L9.81426 6.05402ZM8.62107 5.94511L8.92848 5.86904C9.00885 6.06454 9.03256 6.23157 8.99941 6.37104C8.96602 6.51012 8.88511 6.62487 8.75685 6.71467C8.59573 6.82751 8.42149 6.85683 8.23459 6.80287C8.01867 6.74054 7.82563 6.58741 7.65523 6.34401C7.47501 6.08657 7.39203 5.84471 7.40646 5.61789C7.41897 5.42124 7.50992 5.26342 7.68025 5.14414C7.81864 5.0472 7.9677 5.0135 8.12728 5.04252C8.24089 5.06347 8.35947 5.12902 8.48314 5.23978L8.28663 5.48471C8.21363 5.41394 8.13849 5.37327 8.06097 5.36275C7.98336 5.35216 7.91267 5.36919 7.84912 5.41371C7.75785 5.47765 7.71111 5.56946 7.70934 5.6895C7.70726 5.80924 7.77044 5.96069 7.89886 6.14406C8.03187 6.33411 8.15469 6.44955 8.26698 6.49031C8.37951 6.53137 8.48052 6.52033 8.57041 6.45739C8.6365 6.41117 8.67541 6.34563 8.68754 6.26128C8.69974 6.1763 8.67771 6.07084 8.62107 5.94511ZM6.41199 6.52992L6.73352 6.94149L6.86624 6.8378C6.9555 6.76802 7.01116 6.71467 7.03349 6.67706C7.05553 6.63984 7.0642 6.59662 7.05882 6.54804C7.05383 6.49914 7.03288 6.45132 6.99565 6.40366C6.95812 6.35568 6.91574 6.32299 6.86915 6.30656C6.82203 6.29014 6.77881 6.28852 6.73874 6.30134C6.69907 6.31438 6.62921 6.36021 6.52889 6.43858L6.41199 6.52992ZM7.11424 7.92253L5.98061 6.47151L6.36679 6.16977C6.51069 6.05733 6.61018 5.991 6.66522 5.97028C6.75325 5.9375 6.84889 5.94004 6.95175 5.97711C7.05499 6.0145 7.1517 6.09087 7.24189 6.20639C7.32402 6.31139 7.37269 6.41487 7.38858 6.51665C7.40446 6.61849 7.39363 6.707 7.35656 6.78214C7.31995 6.85706 7.22892 6.95155 7.08362 7.06507L6.92618 7.18811L7.3538 7.7354L7.11424 7.92253ZM6.07748 7.92875L5.43609 7.61443L5.79648 8.23009L6.07748 7.92875ZM6.99297 8.0151L6.76691 8.2575L6.37076 8.06868L5.95974 8.50949L6.18095 8.88583L5.95989 9.12294L5.01409 7.4372L5.23422 7.20109L6.99297 8.0151ZM4.37255 8.66132L4.12101 9.03421C4.57134 9.33794 4.88566 9.5996 5.06237 9.81913L5.38336 9.34316L4.37255 8.66132ZM5.55338 9.09116L5.62646 8.98278L6.21725 9.38123L6.07748 9.58847L5.74512 9.36426L5.21189 10.1548L5.54425 10.379L5.40455 10.5862L4.81374 10.1877L4.88398 10.0836C4.805 9.97081 4.69684 9.85182 4.56091 9.72756C4.42436 9.60343 4.20636 9.4398 3.90639 9.23745L3.70238 9.09983L4.2852 8.23578L5.55338 9.09116ZM4.24666 10.7846L2.81729 10.6793L2.97241 10.3748L3.9833 10.4968L3.26946 9.79187L3.4127 9.51072L4.4285 10.5995C4.55209 10.7327 4.63145 10.8415 4.66707 10.9256C4.70252 11.009 4.7013 11.0878 4.66407 11.1608C4.6283 11.2311 4.58946 11.2903 4.54809 11.3385L4.30285 11.2135C4.32872 11.1704 4.34752 11.1371 4.35943 11.1138C4.39266 11.0485 4.40249 10.9952 4.38843 10.9549C4.37415 10.9139 4.32703 10.8572 4.24666 10.7846ZM3.62093 11.7608L3.78459 11.4897C3.9797 11.571 4.11456 11.6724 4.18971 11.7944C4.26447 11.9164 4.28834 12.0548 4.26117 12.2089C4.22701 12.4026 4.12454 12.5465 3.95429 12.6406C3.75749 12.7492 3.51271 12.7774 3.2201 12.7258C2.91063 12.6712 2.68096 12.5589 2.53076 12.3883C2.40056 12.2404 2.35323 12.0644 2.38937 11.8597C2.41863 11.6933 2.50028 11.5641 2.63361 11.4717C2.72878 11.4062 2.85904 11.3687 3.02476 11.3596L3.059 11.6717C2.95729 11.6733 2.87547 11.6977 2.81314 11.745C2.75082 11.7924 2.7129 11.8544 2.69938 11.9309C2.68005 12.0406 2.71198 12.1386 2.79557 12.2248C2.87877 12.3108 3.0306 12.3733 3.25104 12.4121C3.47947 12.4524 3.64796 12.4473 3.75619 12.3967C3.86472 12.3462 3.92835 12.2669 3.94747 12.1588C3.96143 12.0794 3.94263 12.0056 3.89158 11.9373C3.84016 11.8686 3.74989 11.8097 3.62093 11.7608ZM2.97771 14.0415C3.18625 14.0782 3.34952 14.0661 3.46765 14.0056C3.58602 13.9446 3.65563 13.8559 3.67636 13.7385C3.69708 13.6206 3.66239 13.514 3.57257 13.418C3.48285 13.3222 3.33095 13.2557 3.11641 13.2179C2.9061 13.1808 2.74413 13.1909 2.62992 13.2487C2.5161 13.3062 2.44844 13.3962 2.427 13.5182C2.40542 13.6402 2.43846 13.7487 2.52645 13.8431C2.61465 13.9378 2.76494 14.0039 2.97771 14.0415ZM2.93542 14.3527C2.71926 14.3146 2.54702 14.2516 2.41863 14.1628C2.29011 14.0744 2.20057 13.9724 2.1504 13.8573C2.1001 13.7423 2.08796 13.6112 2.11385 13.4643C2.15148 13.2514 2.26301 13.0926 2.44925 12.987C2.63537 12.8818 2.87855 12.8555 3.17881 12.9085C3.48193 12.9619 3.70668 13.0747 3.85229 13.2466C3.98155 13.3979 4.0269 13.5799 3.98922 13.7936C3.95122 14.009 3.84653 14.1655 3.67551 14.2638C3.47994 14.3757 3.23316 14.4052 2.93542 14.3527ZM4.00503 15.681L2.2185 16.0608L1.99747 15.0211L2.30238 14.9563L2.46017 15.6987L3.94186 15.3837L4.00503 15.681ZM1.98007 17.4556L1.95081 17.3176C2.06678 17.3008 2.16227 17.3146 2.23617 17.359C2.31048 17.4037 2.35633 17.4689 2.37467 17.5549C2.39301 17.6412 2.37764 17.7194 2.32787 17.7905C2.27851 17.8611 2.19706 17.913 2.08418 17.9454L2.05492 17.8078C2.17063 17.7723 2.21715 17.7006 2.19436 17.5932C2.17171 17.4862 2.09996 17.4401 1.98007 17.4556ZM4.42328 17.744L2.6221 18.1269L2.56176 17.843L3.76201 17.5879L2.43482 17.2458L2.3713 16.9472L4.17251 16.5643L4.23285 16.8483L3.05823 17.0979L4.35949 17.4441L4.42328 17.744ZM5.12691 19.0976L3.51639 19.9904L3.37569 19.7366L4.44892 19.1417L3.07972 19.2026L2.93173 18.9356L4.54226 18.0428L4.68295 18.2967L3.6326 18.8789L4.97831 18.8295L5.12691 19.0976ZM5.89848 20.1103L4.44738 21.2439L4.26025 21.0044L4.87784 20.5219C4.82971 20.4735 4.78243 20.4506 4.73753 20.4531C4.692 20.4554 4.59998 20.4838 4.46166 20.538C4.32311 20.5919 4.21389 20.6207 4.1346 20.6243C4.05539 20.6279 3.99359 20.6137 3.95053 20.5815C3.90739 20.5493 3.84476 20.4852 3.76217 20.3892L3.97978 20.2192L4.00611 20.253C4.05921 20.3209 4.11103 20.3545 4.16138 20.3542C4.2112 20.3539 4.29125 20.331 4.40056 20.2864C4.51025 20.2416 4.58723 20.2168 4.63091 20.2122C4.67458 20.2069 4.72693 20.2132 4.78742 20.2306C4.76823 20.1609 4.76961 20.0902 4.79272 20.0188C4.81521 19.9473 4.86555 19.8433 4.944 19.7069L5.21396 19.2342L5.43441 19.5163L5.17159 19.9529C5.10389 20.064 5.0619 20.1474 5.04401 20.2033C5.02652 20.2589 5.0375 20.3134 5.0768 20.3664L5.71135 19.8707L5.89848 20.1103ZM5.78143 21.0065L5.65823 20.7148C5.83877 20.6048 6.00003 20.5553 6.14296 20.5661C6.28557 20.5774 6.41153 20.6394 6.5203 20.752C6.65692 20.8935 6.7131 21.0609 6.68915 21.254C6.66129 21.477 6.54025 21.6916 6.32648 21.898C6.10044 22.1163 5.87453 22.2361 5.64825 22.2574C5.45206 22.2758 5.28196 22.2106 5.13751 22.061C5.02014 21.9395 4.9635 21.7976 4.96718 21.6354C4.97018 21.5199 5.01631 21.3924 5.10635 21.2531L5.37899 21.4088C5.32057 21.492 5.29217 21.5726 5.29387 21.6507C5.29547 21.7291 5.32342 21.7962 5.37729 21.8521C5.45474 21.9322 5.55277 21.964 5.67166 21.9469C5.79018 21.9303 5.92995 21.8442 6.09092 21.6887C6.25778 21.5275 6.35265 21.3882 6.37537 21.2709C6.39833 21.1534 6.37153 21.0553 6.29532 20.9764C6.23929 20.9184 6.16851 20.8901 6.08331 20.8914C5.9975 20.8926 5.89672 20.9309 5.78143 21.0065ZM7.35918 22.615L7.67557 22.2379L7.45873 22.056C7.36386 21.9763 7.29892 21.9304 7.26376 21.9175C7.22854 21.9048 7.18931 21.9055 7.14641 21.9193C7.10381 21.9334 7.06381 21.9624 7.02605 22.0074C6.98713 22.0538 6.96533 22.0998 6.95965 22.1459C6.95421 22.1924 6.9628 22.2349 6.98567 22.273C7.00885 22.3115 7.0705 22.3727 7.17028 22.4565L7.35918 22.615ZM6.88842 23.1759L7.16213 22.8498L7.00808 22.7205C6.91574 22.6431 6.85726 22.5968 6.83247 22.5816C6.78748 22.5545 6.74258 22.5453 6.69699 22.5536C6.65185 22.5621 6.60949 22.5898 6.57011 22.6368C6.5351 22.6784 6.51562 22.7198 6.51223 22.7612C6.50886 22.8026 6.51738 22.8371 6.53772 22.8654C6.55845 22.8934 6.63021 22.9593 6.7534 23.0627L6.88842 23.1759ZM6.92427 23.6061L6.46119 23.2175C6.33508 23.1117 6.25571 23.0255 6.22401 22.9592C6.19207 22.8932 6.18286 22.8161 6.19646 22.7279C6.21012 22.6403 6.24804 22.5591 6.30975 22.4855C6.36685 22.4175 6.43341 22.3688 6.5097 22.3393C6.58592 22.3098 6.65923 22.3018 6.72923 22.3158C6.68094 22.2339 6.66237 22.1473 6.67327 22.0556C6.68348 21.9641 6.72454 21.8759 6.79563 21.7911C6.88158 21.6887 6.97953 21.6226 7.08807 21.5933C7.19683 21.5637 7.29194 21.5691 7.37338 21.6088C7.42995 21.6368 7.54371 21.722 7.7141 21.8651L8.10794 22.1955L6.92427 23.6061ZM8.77573 23.7457C8.89102 23.5681 8.94368 23.4131 8.93408 23.2807C8.92418 23.148 8.86975 23.0492 8.76974 22.9842C8.66942 22.9191 8.55766 22.9093 8.43424 22.9545C8.31096 22.9997 8.19038 23.1136 8.07171 23.2963C7.95543 23.4753 7.90154 23.6284 7.91007 23.7561C7.91851 23.8834 7.97492 23.9807 8.07886 24.0482C8.18271 24.1156 8.29553 24.1276 8.41673 24.0836C8.53847 24.0394 8.65798 23.9269 8.77573 23.7457ZM9.04569 23.9063C8.92618 24.0903 8.80083 24.2243 8.66896 24.3077C8.5374 24.3915 8.40845 24.4341 8.28287 24.4353C8.1573 24.4366 8.03195 24.3966 7.90691 24.3154C7.72562 24.1976 7.62299 24.0329 7.59858 23.8202C7.57448 23.6077 7.64525 23.3736 7.81135 23.1179C7.97899 22.8597 8.17065 22.6969 8.38573 22.6301C8.57548 22.5702 8.76084 22.5996 8.94283 22.7178C9.1262 22.8369 9.22937 22.9944 9.25301 23.1903C9.27956 23.4139 9.21033 23.6527 9.04569 23.9063ZM10.3383 23.5542L9.62006 24.9049L10.0161 25.1155L9.86975 25.3907L8.8105 24.8274L8.9568 24.5523L9.35165 24.7623L10.0699 23.4116L10.3383 23.5542ZM10.8956 24.5567L10.6607 24.3443C10.7778 24.1684 10.903 24.0552 11.0372 24.0048C11.1711 23.9547 11.3115 23.9576 11.4576 24.0137C11.6413 24.0843 11.763 24.2123 11.8228 24.3973C11.8918 24.6112 11.8728 24.8569 11.7663 25.1343C11.6538 25.4277 11.4996 25.6317 11.3035 25.7466C11.1335 25.8461 10.9518 25.859 10.7577 25.7845C10.5999 25.724 10.4886 25.6192 10.4234 25.4707C10.3773 25.3648 10.3653 25.2298 10.3879 25.0654L10.7009 25.0913C10.6831 25.1915 10.6914 25.2764 10.726 25.3466C10.7606 25.4169 10.8143 25.466 10.8867 25.4937C10.9907 25.5337 11.093 25.5211 11.1935 25.4554C11.2939 25.3902 11.3842 25.2531 11.4644 25.0441C11.5475 24.8276 11.5746 24.6612 11.5456 24.5453C11.5167 24.429 11.451 24.3515 11.3486 24.3121C11.2733 24.2833 11.1973 24.2876 11.1205 24.3247C11.0433 24.3621 10.9682 24.4394 10.8956 24.5567ZM13.0737 25.6031C13.1356 25.4006 13.1434 25.2371 13.0977 25.1125C13.0517 24.9876 12.9721 24.9076 12.8581 24.8728C12.7436 24.8379 12.6335 24.8593 12.5273 24.9367C12.4212 25.0141 12.3367 25.1568 12.273 25.3651C12.2106 25.5694 12.201 25.7313 12.2444 25.8517C12.2876 25.9717 12.3687 26.0498 12.4871 26.086C12.6056 26.1222 12.7174 26.1027 12.8217 26.0269C12.9265 25.9509 13.0105 25.8098 13.0737 25.6031ZM13.3774 25.683C13.3132 25.893 13.2297 26.0562 13.1259 26.1728C13.0226 26.2896 12.9104 26.3661 12.7901 26.4019C12.6697 26.4378 12.5382 26.4338 12.3955 26.3902C12.1888 26.327 12.0448 26.1969 11.9627 25.9992C11.881 25.8016 11.8844 25.557 11.9736 25.2655C12.0636 24.9711 12.2029 24.7618 12.3913 24.6382C12.5571 24.5284 12.7434 24.5056 12.9509 24.569C13.16 24.6329 13.3027 24.7559 13.3794 24.9376C13.4665 25.1453 13.4658 25.394 13.3774 25.683ZM14.2902 26.5746L14.4166 26.0678L14.2531 26.0271C14.1432 25.9997 14.0669 25.9886 14.0235 25.9941C13.9806 25.9997 13.9413 26.0195 13.9062 26.0537C13.8707 26.0877 13.846 26.1337 13.8314 26.1923C13.8166 26.2514 13.817 26.305 13.8327 26.3518C13.8489 26.399 13.8741 26.4341 13.9089 26.4577C13.9436 26.481 14.0227 26.5079 14.1463 26.5387L14.2902 26.5746ZM14.9552 25.1638L14.5098 26.9504L14.0342 26.8319C13.8571 26.7877 13.7435 26.7502 13.6933 26.7195C13.6132 26.6704 13.5564 26.5934 13.5222 26.4895C13.4882 26.3851 13.4888 26.262 13.5242 26.1197C13.5566 25.9904 13.6081 25.8884 13.6785 25.8131C13.749 25.7379 13.8254 25.692 13.9074 25.6749C13.989 25.6576 14.1195 25.6712 14.2984 25.7158L14.4923 25.7642L14.6603 25.0902L14.9552 25.1638Z" fill="#FFF100"/>
<path fill-rule="evenodd" clip-rule="evenodd" d="M17.6562 27.236V25.8446H18.005C18.0534 25.8429 18.102 25.8471 18.1494 25.8571C18.1936 25.8677 18.2341 25.8903 18.2665 25.9223C18.3023 25.9609 18.3287 26.0072 18.3438 26.0577C18.364 26.1191 18.3741 26.1835 18.3736 26.2482C18.3771 26.3539 18.3503 26.4583 18.2964 26.5491C18.2323 26.6377 18.1256 26.6847 18.0174 26.6719H17.7683V27.2385L17.6562 27.236ZM17.7832 26.5064H18.0324C18.0966 26.5129 18.1602 26.4888 18.2042 26.4413C18.2411 26.3859 18.2586 26.3197 18.2541 26.2532C18.2557 26.2015 18.2455 26.15 18.2242 26.1028C18.2087 26.0663 18.1803 26.0368 18.1445 26.0201C18.1057 26.0141 18.0662 26.0141 18.0274 26.0201H17.7783L17.7832 26.5064Z" fill="#FFE600"/>
<path fill-rule="evenodd" clip-rule="evenodd" d="M18.6775 25.8447H18.7921V26.9478L19.2904 25.8447H19.4149V27.2361H19.3003V26.1355L18.8021 27.2361H18.675L18.6775 25.8447Z" fill="#FFE600"/>
<path fill-rule="evenodd" clip-rule="evenodd" d="M19.7687 27.2361V25.8447H19.8957V26.4163H20.394V25.8447H20.521V27.2361H20.394V26.5793H19.8957V27.2361H19.7687Z" fill="#FFE600"/>
<path fill-rule="evenodd" clip-rule="evenodd" d="M20.7577 27.2361L21.1239 26.5166L20.8 25.8447H20.952L21.1264 26.2032C21.1613 26.2759 21.1862 26.3336 21.2011 26.3712C21.2235 26.321 21.2485 26.2684 21.2783 26.2132L21.4677 25.8447H21.6047L21.2759 26.5066L21.6321 27.2361H21.4776L21.2285 26.7347L21.1887 26.6495L21.1463 26.7447L20.8972 27.2286L20.7577 27.2361Z" fill="#FFE600"/>
<path fill-rule="evenodd" clip-rule="evenodd" d="M17.5067 25.5713C17.2563 25.8435 17.1213 26.2033 17.1305 26.5741C17.1247 26.9443 17.2592 27.3029 17.5067 27.5768H17.2999C17.0427 27.3079 16.902 26.9473 16.9088 26.5741C16.9047 26.2014 17.045 25.8417 17.2999 25.5713H17.5067Z" fill="#FFE600"/>
<path fill-rule="evenodd" clip-rule="evenodd" d="M21.9908 25.5713C22.2457 25.8417 22.386 26.2014 22.3819 26.5741C22.3887 26.9473 22.248 27.3079 21.9908 27.5768H21.7841C22.0315 27.3029 22.1661 26.9443 22.1602 26.5741C22.1694 26.2033 22.0344 25.8435 21.7841 25.5713H21.9908Z" fill="#FFE600"/>
</svg>
